<svg width="80" height="80" viewBox="0 0 80 80" fill="none" xmlns="http://www.w3.org/2000/svg">
<path d="M74.276 51.2958C69.248 71.4641 48.8208 83.7381 28.6501 78.7087C8.48794 73.6807 -3.78607 53.2523 1.24417 33.0856C6.27 12.9152 26.6972 0.640241 46.8616 5.66828C67.0308 10.6963 79.304 31.127 74.2755 51.2962L74.2758 51.2958H74.276Z" fill="#F7931A"/>
<path d="M54.4234 36.7953C55.1727 31.7853 51.3584 29.0922 46.1427 27.2957L47.8347 20.5092L43.7036 19.4798L42.0564 26.0876C40.9704 25.8167 39.8551 25.5615 38.7465 25.3085L40.4056 18.6571L36.2771 17.6277L34.5841 24.412C33.6854 24.2073 32.8027 24.0051 31.9463 23.792L31.951 23.7707L26.2541 22.348L25.1552 26.7604C25.1552 26.7604 28.2201 27.4629 28.1555 27.5062C29.8284 27.9237 30.1309 29.0311 30.0807 29.9089L28.1533 37.6403C28.2685 37.6695 28.4179 37.7119 28.5828 37.7781C28.445 37.7439 28.2983 37.7065 28.1462 37.6701L25.4446 48.5007C25.2402 49.0089 24.7213 49.7717 23.5517 49.482C23.5931 49.542 20.5491 48.7327 20.5491 48.7327L18.498 53.4615L23.8741 54.8017C24.8742 55.0525 25.8542 55.3149 26.8194 55.5617L25.1099 62.426L29.2363 63.4554L30.9292 56.664C32.0565 56.97 33.1505 57.2523 34.2214 57.5183L32.5342 64.2778L36.6655 65.3072L38.3748 58.4557C45.4193 59.7889 50.7162 59.2514 52.9457 52.8797C54.7423 47.7497 52.8563 44.7907 49.1502 42.8612C51.8495 42.2386 53.8827 40.4633 54.4248 36.7958L54.4235 36.7949L54.4234 36.7953ZM44.9847 50.0308C43.708 55.1607 35.0707 52.3876 32.2703 51.6922L34.5389 42.5982C37.339 43.2973 46.319 44.6807 44.9849 50.0308H44.9847ZM46.2623 36.7209C45.0977 41.3872 37.9087 39.0165 35.5767 38.4352L37.6334 30.1875C39.9655 30.7688 47.4755 31.8537 46.2627 36.7209H46.2623Z" fill="white"/>
</svg>
