<svg width="34" height="30" viewBox="0 0 34 30" fill="none" xmlns="http://www.w3.org/2000/svg">
<path d="M25.5343 14.3761C29.4148 13.7602 34.0606 12.3266 33.9202 11.4877C33.7797 10.6489 28.926 10.711 25.0379 11.3402C24.6841 11.4036 24.3379 11.4537 24.005 11.5114C23.5839 11.1659 22.7016 10.4521 21.5754 9.5465C21.5888 9.55408 21.6154 9.56926 21.6288 9.57685L22.675 9.41321C22.8063 9.39966 22.8897 9.25299 22.8495 9.10656L22.684 8.0946C22.6647 7.94241 22.5465 7.83988 22.4077 7.86677L21.3615 8.0304C21.3615 8.0304 21.2626 8.08005 21.219 8.1258L19.9996 8.31448C19.045 7.5418 18.0045 6.70267 16.9775 5.87113L18.0027 5.71324C18.134 5.69969 18.2175 5.55302 18.1772 5.40659L18.0118 4.39463C17.9925 4.24244 17.8743 4.13991 17.7355 4.1668L16.6892 4.33043C16.6892 4.33043 16.5904 4.38008 16.5467 4.42583L15.3692 4.60302C12.7548 2.49762 10.554 0.75109 10.4588 0.732235C10.2209 0.685099 8.69354 0.980891 8.69354 0.980891C8.32641 1.03674 8.04687 1.12477 8.04503 1.15903C8.05652 1.20087 8.46365 1.16778 8.80986 1.11768L13.003 6.06291C12.7177 6.13003 12.52 6.22933 12.5296 6.30542C12.545 6.40243 12.8533 6.419 13.2071 6.35556L13.2489 6.34407L14.0689 7.3225C13.8045 7.38386 13.6068 7.48317 13.6165 7.55926C13.6319 7.65627 13.9401 7.67284 14.2939 7.6094L15.0509 8.48139L15.389 9.22094C15.0695 9.28622 14.8166 9.38942 14.8263 9.46551C14.8417 9.56253 15.1499 9.57909 15.5037 9.51566L15.5171 9.52325L16.1952 10.9681C15.8756 11.0334 15.6227 11.1366 15.6457 11.2203C15.6611 11.3173 15.9694 11.3338 16.3232 11.2704L16.9383 12.6088C14.3381 13.0531 13.3109 13.2452 11.384 13.5608C9.44378 13.8687 7.59319 14.2983 6.05088 14.7444C4.61415 13.6092 1.80344 11.3215 1.80344 11.3215L0.699994 11.3996L2.58623 15.9323C2.25542 16.0794 1.99495 16.196 1.82391 16.3105C1.0308 16.4946 0.542062 16.6401 0.551714 16.7161C0.561366 16.7922 1.05608 16.7913 1.84367 16.71C2.04735 16.7553 2.35562 16.7719 2.74573 16.7997L2.34943 21.7456L3.42783 21.4944C3.42783 21.4944 5.52636 18.2407 6.5055 16.7681C8.06182 16.7006 9.85401 16.5908 11.7526 16.418C14.157 16.0388 15.2223 15.9037 17.4384 15.5762L17.2641 17.0302C16.8894 17.0994 16.6156 17.2083 16.631 17.3054C16.6406 17.3814 16.9071 17.4095 17.2457 17.3727L17.0564 18.9771L17.0431 18.9695C16.6684 19.0387 16.387 19.161 16.41 19.2447C16.4196 19.3207 16.6994 19.3564 17.0247 19.312L16.9405 20.1113L16.5048 21.1872C16.1377 21.243 15.8563 21.3653 15.8717 21.4623C15.8814 21.5384 16.0926 21.5704 16.3761 21.5375L15.893 22.7276L15.8664 22.7124C15.4917 22.7816 15.2103 22.9039 15.2257 23.0009C15.2353 23.077 15.4675 23.1032 15.751 23.0704L13.2921 29.0666C12.9516 29.1376 12.5484 29.2258 12.5466 29.2601C12.5581 29.3019 12.8472 29.29 13.2144 29.2341C13.2144 29.2341 14.7705 29.043 14.9624 28.9227C15.0404 28.8788 16.5887 26.5299 18.4293 23.7296L19.6068 23.5524C19.6068 23.5524 19.7135 23.6131 19.7686 23.6092L20.8148 23.4455C20.9461 23.432 21.0296 23.2853 20.9893 23.1389L20.8239 22.1269C20.8046 21.9747 20.6864 21.8722 20.5476 21.8991L19.5223 22.057C20.2414 20.9483 20.9605 19.8396 21.6417 18.7975L22.861 18.6088C22.861 18.6088 22.9677 18.6695 23.0229 18.6656L24.0691 18.502C24.2003 18.4884 24.2838 18.3418 24.2436 18.1953L24.0781 17.1834C24.0588 17.0312 23.9406 16.9287 23.8018 16.9555L22.7556 17.1192C22.7556 17.1192 22.7404 17.1459 22.6986 17.1573C23.4841 15.9629 24.0913 15.0199 24.3911 14.5551C24.724 14.4974 25.0702 14.4473 25.4373 14.3915L25.5343 14.3761Z" fill="#3D66FD"/>
</svg>
