<svg width="80" height="80" viewBox="0 0 80 80" fill="none" xmlns="http://www.w3.org/2000/svg">
<circle cx="40" cy="40" r="40" fill="#00AEEF"/>
<path d="M39.5804 36.4319C40.1728 36.3294 40.6955 36.1069 41.1534 35.7694C41.6114 35.4319 42.0444 34.8619 42.4501 34.0819L51.4724 16.6145C51.8258 16.0296 52.2588 15.5646 52.7566 15.1996C53.268 14.8442 53.8771 14.6581 54.4988 14.6671H60.2208L48.986 35.2119C48.4882 36.0569 47.9232 36.7444 47.2935 37.2769C46.6644 37.8024 45.9472 38.2113 45.1755 38.4844C46.3801 38.7969 47.3881 39.3044 48.2119 40.0169C49.0233 40.7169 49.7973 41.7069 50.5166 42.9794L61.3333 64.6667H55.0364C53.7646 64.6667 52.7417 63.9793 51.9701 62.6168L43.1047 44.2394C42.6468 43.4194 42.149 42.8369 41.6114 42.4844C41.0763 42.1344 40.3943 41.9269 39.5829 41.8744V51.1993H34.6325V41.8344H30.9938V64.6667H24V14.6671H30.9938V36.5119H34.6325V25.707H39.5829V36.4319H39.5804Z" fill="white"/>
</svg>
