<svg width="80" height="80" viewBox="0 0 80 80" fill="none" xmlns="http://www.w3.org/2000/svg">
<circle cx="40" cy="40" r="40" fill="#0E0E21"/>
<path d="M62.4901 49.0332L57.7592 40.9777C57.5932 40.6455 57.1782 40.5625 56.9292 40.8116L53.8583 42.8047C53.6093 42.9708 53.5263 43.3861 53.6923 43.6352L56.4312 48.2028C56.5142 48.3689 56.4312 48.5349 56.3482 48.618L40.4126 58.9158C40.3296 58.9988 40.1636 58.9988 40.0806 58.9158L24.311 48.618C24.1451 48.5349 24.1451 48.3689 24.228 48.2028L26.967 43.6352C27.133 43.3861 27.05 42.9708 26.801 42.8047L23.7301 40.8116C23.3981 40.6455 23.0661 40.7286 22.9001 40.9777L18.1692 49.0332C17.8372 49.6146 18.0032 50.362 18.5842 50.6942L39.7486 64.4799C40.1636 64.729 40.6616 64.729 41.0766 64.4799L62.2411 50.6942C62.6561 50.2789 62.8221 49.5315 62.4901 49.0332Z" fill="white"/>
<path d="M25.5853 36.512L28.6501 38.5207C28.9815 38.6881 29.3128 38.6044 29.4785 38.3534L39.4183 21.2789C39.5012 21.1115 39.8325 21.1115 39.9153 21.2789L49.8552 38.3534C50.0209 38.6881 50.435 38.7718 50.6835 38.5207L53.7483 36.512C53.9968 36.3446 54.0796 35.9261 53.914 35.675L42.2346 15.2526C41.9861 14.8341 41.6548 14.6667 41.1578 14.6667H38.3415C37.9274 14.6667 37.5132 14.9178 37.2647 15.2526L25.4197 35.675C25.254 35.9261 25.3369 36.3446 25.5853 36.512Z" fill="#2AE7A8"/>
</svg>
