<svg width="95" height="200" viewBox="0 0 95 200" fill="none" xmlns="http://www.w3.org/2000/svg">
<path d="M75.5175 28.8078C74.915 27.4831 74.2994 26.1504 73.6628 24.8231C73.491 24.4525 73.6348 24.0023 74.0055 23.8306C74.3761 23.6588 74.8262 23.8027 74.998 24.1733C75.6478 25.5085 76.2765 26.849 76.8711 28.1869C77.0428 28.5575 76.878 29.013 76.4942 29.1769C76.2656 29.2905 75.9998 29.2568 75.8022 29.1388C75.6705 29.0601 75.5756 28.9498 75.5043 28.8L75.5175 28.8078ZM73.046 20.2019C72.3804 18.893 71.7017 17.5763 71.002 16.2649C70.8092 15.8995 70.3591 15.7557 69.9859 15.9617C69.6206 16.1545 69.4899 16.6125 69.6827 16.9778C70.3692 18.2813 71.0558 19.5849 71.7082 20.8859C71.7742 21.0147 71.8692 21.125 71.9877 21.1958C72.1984 21.3217 72.4721 21.3422 72.7086 21.2154C73.0739 21.0227 73.2309 20.5803 73.0381 20.215L73.046 20.2019ZM85.172 53.9268C85.3432 54.029 85.5538 54.0655 85.772 53.9993C86.1664 53.8775 86.3971 53.4613 86.2753 53.0669C85.8437 51.6655 85.399 50.2563 84.941 48.8391C84.8192 48.4447 84.3874 48.2404 83.993 48.3622C83.5986 48.484 83.3942 48.9158 83.516 49.3102C83.9818 50.7142 84.4134 52.1156 84.8318 53.5091C84.8795 53.6985 85.0061 53.8455 85.1641 53.9399L85.172 53.9268ZM10.938 167.044C10.2909 165.764 9.64643 164.45 9.00449 163.102C8.83275 162.731 8.39043 162.574 8.00664 162.738C7.63603 162.91 7.47905 163.352 7.64292 163.736C8.29016 165.105 8.94 166.44 9.58707 167.72C9.65309 167.849 9.75586 167.946 9.87439 168.017C10.0851 168.143 10.3588 168.163 10.5953 168.037C10.9606 167.844 11.1044 167.394 10.9248 167.036L10.938 167.044ZM68.8634 12.3964C68.1479 11.1113 67.4114 9.83155 66.6538 8.55707C66.44 8.19706 65.9873 8.08747 65.6352 8.28811C65.2751 8.50191 65.1655 8.95461 65.3661 9.30676C66.1105 10.5734 66.847 11.8532 67.5572 13.1172C67.6311 13.2328 67.7208 13.3221 67.8261 13.385C68.05 13.5188 68.3315 13.5261 68.568 13.3994C68.9202 13.1987 69.0508 12.7407 68.8502 12.3886L68.8634 12.3964ZM82.409 45.5397C82.5933 45.6499 82.8249 45.681 83.0378 45.5938C83.4269 45.4509 83.6234 45.0322 83.4938 44.651C82.9991 43.2655 82.5043 41.88 81.9754 40.492C81.8248 40.116 81.3929 39.9117 81.017 40.0624C80.6279 40.2052 80.4367 40.645 80.5874 41.0209C81.1031 42.4011 81.6057 43.7734 82.1004 45.1589C82.156 45.335 82.2772 45.4611 82.4221 45.5476L82.409 45.5397ZM5.51588 155.032C5.36519 154.656 4.92546 154.465 4.54955 154.615C4.17363 154.766 3.98244 155.206 4.13314 155.582C4.68837 156.986 5.26722 158.35 5.83545 159.672C5.90678 159.822 6.01486 159.94 6.13339 160.011C6.33094 160.129 6.58357 160.155 6.80437 160.054C7.18816 159.89 7.35829 159.456 7.19443 159.072C6.62619 157.75 6.06054 156.394 5.51061 155.011L5.51588 155.032ZM78.9693 36.9094C79.0327 37.0724 79.1408 37.1905 79.2725 37.2692C79.47 37.3872 79.7095 37.4052 79.9356 37.3258C80.3115 37.1751 80.5027 36.7354 80.352 36.3594C79.8074 34.9977 79.2285 33.6334 78.6497 32.2692C78.499 31.8932 78.0514 31.7152 77.6676 31.8791C77.2839 32.043 77.1137 32.4774 77.2776 32.8612C77.8643 34.2123 78.4299 35.5687 78.9614 36.9226L78.9693 36.9094ZM2.44002 146.78C2.29719 146.391 1.88636 146.181 1.48411 146.316C1.09502 146.459 0.885352 146.869 1.02032 147.272C1.51244 148.691 2.02033 150.085 2.51758 151.436C2.58104 151.599 2.69442 151.738 2.82612 151.817C3.01049 151.927 3.24208 151.958 3.46817 151.879C3.85726 151.736 4.04843 151.296 3.89773 150.92C3.40048 149.569 2.89792 148.197 2.40579 146.777L2.44002 146.78ZM86.6797 153.231C86.2431 154.65 85.7881 156.04 85.3146 157.401C85.1995 157.743 85.337 158.111 85.6399 158.292C85.6794 158.316 85.7321 158.347 85.7716 158.371C86.1533 158.509 86.5818 158.301 86.7204 157.919C87.2018 156.545 87.6726 155.128 88.117 153.696C88.2425 153.307 88.026 152.892 87.6232 152.758C87.2336 152.633 86.8105 152.862 86.685 153.252L86.6797 153.231ZM83.7809 161.524C83.2443 162.901 82.6682 164.254 82.0946 165.573C81.9375 165.926 82.0724 166.328 82.3885 166.517C82.4149 166.533 82.4412 166.549 82.4675 166.564C82.8467 166.737 83.2858 166.571 83.4455 166.184C84.0479 164.846 84.6109 163.485 85.1633 162.081C85.3151 161.708 85.1222 161.253 84.7404 161.114C84.3534 160.954 83.9328 161.15 83.7731 161.537L83.7809 161.524ZM64.3601 4.73893C63.5868 3.49079 62.8004 2.23479 61.9929 0.984083C61.7712 0.637244 61.3106 0.540811 60.9638 0.762484C60.6169 0.984157 60.5205 1.44475 60.7422 1.79159C61.5365 3.03443 62.3308 4.27726 63.0909 5.51754C63.1517 5.62528 63.2491 5.70139 63.3413 5.75645C63.5652 5.89019 63.8678 5.89222 64.1122 5.75231C64.459 5.53063 64.5686 5.07792 64.3548 4.71791L64.3601 4.73893ZM88.994 144.75C88.6521 146.189 88.284 147.614 87.9105 149.016C87.8244 149.34 87.9776 149.682 88.2542 149.847C88.3069 149.879 88.3727 149.918 88.4411 149.923C88.8386 150.035 89.2486 149.798 89.3609 149.4C89.7422 147.984 90.1104 146.56 90.4469 145.099C90.5461 144.694 90.3006 144.297 89.8953 144.198C89.4899 144.099 89.0931 144.344 88.994 144.75ZM80.2292 169.534C79.5662 170.853 78.8768 172.157 78.1847 173.405C77.9802 173.748 78.1048 174.197 78.4604 174.41L78.4735 174.418C78.8291 174.63 79.2866 174.492 79.4858 174.129C80.1936 172.854 80.8909 171.537 81.5696 170.192C81.7557 169.82 81.597 169.368 81.2388 169.19C80.8675 169.004 80.4232 169.149 80.2371 169.521L80.2292 169.534ZM89.9274 140.465C89.8623 140.783 90.0102 141.104 90.2736 141.261C90.3395 141.301 90.4185 141.348 90.508 141.348C90.908 141.426 91.3126 141.167 91.3908 140.767C91.6905 139.338 91.9586 137.872 92.2135 136.398C92.2785 135.99 92.012 135.599 91.6041 135.534C91.1962 135.469 90.8047 135.735 90.7398 136.143C90.4927 137.604 90.2061 139.041 89.9274 140.465ZM93.0711 105.497C93.0716 105.766 93.2194 105.997 93.4301 106.123C93.5486 106.193 93.6829 106.238 93.8276 106.235C94.2406 106.232 94.5688 105.892 94.5654 105.478C94.5441 104.018 94.5043 102.529 94.4435 101.046C94.4269 100.625 94.0791 100.31 93.6713 100.334C93.2504 100.351 92.9354 100.699 92.9599 101.106C93.0206 102.59 93.063 104.045 93.0842 105.505L93.0711 105.497ZM92.4479 123.083C92.4195 123.37 92.5779 123.643 92.8149 123.785C92.9071 123.84 93.0151 123.869 93.1309 123.884C93.5413 123.915 93.9011 123.612 93.9451 123.209C94.0685 121.746 94.1787 120.275 94.2837 118.783C94.3144 118.373 93.9902 118.018 93.5797 117.988C93.1692 117.957 92.8147 118.281 92.7839 118.691C92.6868 120.17 92.5844 121.628 92.4557 123.07L92.4479 123.083ZM32.8475 193.694C31.649 192.978 30.4661 192.146 29.2962 191.233C28.9774 190.989 28.4987 191.043 28.2547 191.361C28.0028 191.693 28.0642 192.159 28.383 192.403C29.6056 193.348 30.8411 194.211 32.0923 194.958C32.4478 195.171 32.9107 195.054 33.1152 194.712C33.3276 194.356 33.2241 193.901 32.8685 193.689L32.8475 193.694ZM15.2203 174.713C14.4786 173.501 13.7343 172.235 13.0135 170.929C12.8128 170.576 12.3548 170.446 12.0027 170.646C11.6505 170.847 11.5199 171.305 11.7205 171.657C12.4598 172.992 13.2173 174.267 13.9643 175.499C14.025 175.607 14.1225 175.683 14.2147 175.738C14.4386 175.872 14.7411 175.874 14.9855 175.734C15.3324 175.512 15.442 175.06 15.2282 174.699L15.2203 174.713ZM49.2348 197.55C47.8118 197.719 46.3913 197.764 44.9599 197.677C44.5494 197.646 44.1949 197.971 44.1641 198.381C44.1489 198.676 44.302 198.928 44.5259 199.062C44.6313 199.125 44.7392 199.153 44.855 199.169C46.3547 199.261 47.899 199.218 49.3982 199.042C49.8006 198.996 50.0972 198.619 50.0517 198.217C49.993 197.807 49.6294 197.518 49.2269 197.563L49.2348 197.55ZM92.0668 132.665C92.4747 132.73 92.8609 132.443 92.9127 132.027C93.1177 130.577 93.3174 129.106 93.4828 127.632C93.5268 127.23 93.2314 126.857 92.8288 126.813C92.413 126.761 92.0531 127.064 92.0092 127.467C91.8437 128.941 91.6598 130.385 91.4416 131.827C91.3975 132.141 91.548 132.427 91.7982 132.576C91.8773 132.624 91.9773 132.666 92.0799 132.673L92.0668 132.665ZM94.4776 114.36C94.5326 112.892 94.5612 111.408 94.5767 109.917C94.5864 109.512 94.2543 109.17 93.8412 109.174C93.4282 109.177 93.0947 109.496 93.0982 109.909C93.0905 111.388 93.0566 112.85 92.9884 114.311C92.9811 114.592 93.121 114.837 93.358 114.978C93.4634 115.041 93.5845 115.078 93.7081 115.08C94.1265 115.098 94.4678 114.766 94.4776 114.36ZM65.7112 190.488C65.4395 190.165 64.9817 190.124 64.6586 190.396C63.5213 191.342 62.3628 192.205 61.1831 192.983C60.8363 193.205 60.7398 193.666 60.9747 194.02C61.0432 194.115 61.1197 194.196 61.2119 194.251C61.4489 194.393 61.7515 194.395 62.0037 194.242C63.2334 193.44 64.4366 192.532 65.6107 191.554C65.9259 191.295 65.9749 190.824 65.7033 190.501L65.7112 190.488ZM76.9763 176.954C76.6022 176.713 76.1736 176.832 75.948 177.18C75.1455 178.433 74.3323 179.645 73.49 180.786C73.2513 181.126 73.3206 181.578 73.6526 181.83C73.6657 181.838 73.692 181.854 73.7052 181.862C74.0344 182.058 74.4605 181.973 74.6835 181.66C75.5415 180.493 76.3783 179.241 77.1887 177.974C77.4011 177.619 77.3108 177.172 76.9631 176.946L76.9763 176.954ZM40.7571 197.025C39.399 196.696 38.03 196.236 36.6898 195.667C36.3027 195.508 35.8769 195.682 35.704 196.061C35.5547 196.401 35.6897 196.803 36.0057 196.992C36.0321 197.008 36.0584 197.024 36.0979 197.047C37.5118 197.642 38.9677 198.136 40.3996 198.491C40.8049 198.59 41.2017 198.345 41.3009 197.939C41.4001 197.534 41.1546 197.137 40.7493 197.038L40.7571 197.025ZM71.8628 184.138C71.5519 183.881 71.0679 183.914 70.8106 184.225C69.8658 185.358 68.8629 186.438 67.873 187.437C67.5763 187.725 67.5825 188.193 67.8698 188.49C67.9225 188.521 67.9673 188.566 68.02 188.597C68.3097 188.77 68.6911 188.73 68.93 188.48C69.9567 187.449 70.9621 186.334 71.9437 185.17C72.2088 184.845 72.1685 184.375 71.8575 184.117L71.8628 184.138ZM58.4465 195.441C58.2748 195.07 57.8194 194.905 57.4541 195.098C56.1478 195.729 54.7939 196.261 53.4635 196.663C53.0691 196.785 52.8384 197.201 52.9602 197.595C53.0157 197.772 53.1345 197.932 53.2925 198.026C53.4637 198.129 53.6742 198.165 53.8925 198.099C55.307 197.675 56.7319 197.115 58.1091 196.454C58.4798 196.282 58.6446 195.827 58.4519 195.462L58.4465 195.441ZM90.6762 70.2589C90.3788 68.8125 90.0602 67.3714 89.7285 65.9225C89.6278 65.5228 89.2406 65.2736 88.8277 65.3665C88.428 65.4672 88.1788 65.8544 88.2717 66.2673C88.6113 67.7031 88.9166 69.1363 89.2088 70.5617C89.2619 70.772 89.3859 70.9533 89.5571 71.0556C89.7151 71.15 89.9046 71.1917 90.0939 71.144C90.4989 71.0643 90.756 70.6639 90.6762 70.2589ZM20.2199 181.898C19.3548 180.774 18.4869 179.594 17.6426 178.375C17.4131 178.042 16.9446 177.958 16.5978 178.18C16.2641 178.41 16.1809 178.878 16.4104 179.212C17.2731 180.46 18.1595 181.668 19.0431 182.821C19.1063 182.895 19.1775 182.955 19.2565 183.002C19.5067 183.152 19.8514 183.143 20.093 182.948C20.4214 182.698 20.4705 182.227 20.2199 181.898ZM87.5749 62.4381C87.7329 62.5325 87.9435 62.569 88.1328 62.5212C88.5325 62.4205 88.7764 62.0122 88.6756 61.6125C88.315 60.182 87.9334 58.7569 87.5386 57.3238C87.4378 56.9241 87.0217 56.6934 86.6141 56.8074C86.2144 56.9081 85.9837 57.3242 86.0976 57.7318C86.5003 59.1517 86.8688 60.569 87.2373 61.9863C87.285 62.1756 87.4169 62.3437 87.5749 62.4381ZM93.9105 92.186C93.8729 91.7704 93.5171 91.4685 93.1015 91.5062C92.6859 91.5438 92.3841 91.8996 92.4217 92.3152C92.5456 93.783 92.6695 95.2508 92.7539 96.6949C92.7623 96.9501 92.9179 97.1682 93.1155 97.2862C93.2472 97.3648 93.3893 97.3961 93.555 97.3879C93.9627 97.3634 94.2857 97.0024 94.248 96.5868C94.1583 95.1216 94.0423 93.6406 93.9052 92.165L93.9105 92.186ZM92.3432 88.498C92.4749 88.5766 92.6433 88.6237 92.8038 88.5944C93.2062 88.5489 93.5159 88.18 93.4572 87.7697C93.2913 86.3125 93.1121 84.8475 92.9066 83.3667C92.848 82.9564 92.4765 82.6809 92.074 82.7264C91.6637 82.7851 91.3882 83.1566 91.4337 83.559C91.6339 85.0187 91.8131 86.4838 91.9737 87.9199C92.0032 88.1698 92.1404 88.359 92.3379 88.477L92.3432 88.498ZM26.0416 188.396C25.0268 187.432 24.0119 186.379 23.0152 185.266C22.7357 184.956 22.27 184.928 21.9601 185.207C21.6502 185.487 21.6222 185.952 21.9017 186.262C22.9168 187.405 23.9713 188.481 25.0177 189.482C25.0704 189.513 25.102 189.55 25.1547 189.581C25.4444 189.754 25.8258 189.714 26.0726 189.45C26.3561 189.155 26.3368 188.679 26.0416 188.396ZM91.5266 74.6086C91.4469 74.2036 91.0544 73.9334 90.6494 74.0131C90.2444 74.0929 89.9821 74.4722 90.0539 74.8904C90.3172 76.3342 90.5727 77.7912 90.8017 79.2325C90.839 79.4692 90.9709 79.6373 91.1553 79.7474C91.3001 79.834 91.4765 79.8678 91.6501 79.8464C92.0604 79.7878 92.3306 79.3952 92.2719 78.9849C92.0507 77.5305 91.7952 76.0735 91.5266 74.6086Z" fill="#145EF0"/>
</svg>
