<svg width="168" height="171" viewBox="0 0 168 171" fill="none" xmlns="http://www.w3.org/2000/svg">
<path d="M12.7999 122.411C12.5567 122.591 12.2408 122.587 12.0008 122.451C11.9075 122.398 11.8217 122.331 11.7645 122.246C10.8889 121.024 10.0552 119.791 9.26327 118.546C9.04191 118.19 9.14193 117.735 9.49735 117.514C9.85276 117.293 10.3077 117.393 10.5291 117.748C11.2885 118.957 12.109 120.183 12.9655 121.376C13.202 121.705 13.1286 122.175 12.7999 122.411ZM67.8893 20.3243C68.2753 20.1733 68.4572 19.7296 68.2985 19.357C68.1475 18.971 67.7039 18.7891 67.3312 18.9477C65.9413 19.4982 64.5781 20.0639 63.2415 20.6448C62.8688 20.8034 62.687 21.2471 62.8456 21.6197C62.9125 21.7813 63.023 21.8972 63.1564 21.9731C63.3564 22.0869 63.5961 22.0997 63.8205 22.0156C65.1495 21.4481 66.5127 20.8824 67.8817 20.3376L67.8893 20.3243ZM8.33406 113.975C7.64101 112.681 6.99739 111.361 6.41469 110.059C6.24274 109.679 5.80483 109.518 5.43218 109.676C5.05195 109.848 4.891 110.286 5.0496 110.659C5.6438 112.003 6.3065 113.351 7.01862 114.674C7.08735 114.801 7.19218 114.896 7.31218 114.965C7.5255 115.086 7.79952 115.101 8.03332 114.969C8.39448 114.768 8.54208 114.323 8.34164 113.962L8.33406 113.975ZM52.184 26.5843C52.0045 26.2174 51.538 26.0755 51.1845 26.2626C49.8424 26.9463 48.5345 27.6317 47.2534 28.3324C46.8922 28.5328 46.7579 28.9859 46.9584 29.3471C47.0271 29.4744 47.1319 29.5694 47.2519 29.6376C47.4653 29.759 47.7393 29.7738 47.9731 29.642C49.2467 28.9547 50.5412 28.2617 51.8624 27.5838C52.2293 27.4043 52.3844 26.9455 52.184 26.5843ZM3.54378 101.86C3.4346 101.462 3.02887 101.214 2.6238 101.336C2.22633 101.445 1.97781 101.851 2.10032 102.256C2.47014 103.684 2.90847 105.116 3.40955 106.531C3.46886 106.706 3.59851 106.85 3.74517 106.934C3.93183 107.04 4.15068 107.059 4.36747 106.988C4.75919 106.858 4.95438 106.422 4.82429 106.03C4.33469 104.657 3.91545 103.254 3.55711 101.867L3.54378 101.86ZM84.0188 12.9466C82.5926 13.4059 81.2006 13.867 79.8086 14.3281C79.4169 14.4582 79.2084 14.8866 79.3385 15.2784C79.3978 15.4533 79.5274 15.5977 79.6741 15.6811C79.8474 15.7798 80.0796 15.806 80.2755 15.7409C81.6541 15.2723 83.0461 14.8112 84.4514 14.3577C84.8431 14.2276 85.065 13.8067 84.9349 13.4149C84.8048 13.0232 84.3839 12.8014 83.9921 12.9315L84.0188 12.9466ZM24.7345 134.286C23.633 133.306 22.5675 132.294 21.5363 131.283C21.2503 130.979 20.7613 131.001 20.4783 131.281C20.1878 131.575 20.1962 132.056 20.4974 132.334C21.5343 133.365 22.6341 134.379 23.7414 135.38C23.7814 135.402 23.8271 135.446 23.8671 135.469C24.1604 135.636 24.5618 135.582 24.7954 135.326C25.0726 135.025 25.0432 134.55 24.7421 134.272L24.7345 134.286ZM76.5794 16.25C76.4417 15.8716 76.0132 15.6631 75.6215 15.7932C74.2201 16.3018 72.832 16.8181 71.4648 17.3286C71.0789 17.4796 70.8913 17.9024 71.0214 18.2941C71.0882 18.4557 71.2046 18.5925 71.3512 18.676C71.5379 18.7822 71.7701 18.8084 71.9944 18.7243C73.3483 18.2062 74.7287 17.7032 76.1301 17.1946C76.5085 17.0569 76.717 16.6284 76.5869 16.2366L76.5794 16.25ZM101.939 8.56443C101.829 8.16695 101.424 7.91843 101.026 8.02761C99.5769 8.40318 98.1619 8.78059 96.747 9.15799C96.3495 9.26717 96.1143 9.68049 96.2235 10.078C96.2676 10.2796 96.4106 10.4315 96.5706 10.5226C96.7306 10.6136 96.9419 10.6456 97.1301 10.5939C98.5318 10.2089 99.9467 9.83147 101.388 9.46923C101.786 9.36005 102.034 8.95432 101.925 8.55684L101.939 8.56443ZM18.5033 128.145C17.5043 127.047 16.5471 125.938 15.6375 124.838C15.38 124.515 14.9081 124.476 14.5851 124.733C14.2621 124.991 14.223 125.463 14.4804 125.786C15.3958 126.907 16.372 128.045 17.3977 129.158C17.4492 129.222 17.5159 129.26 17.5826 129.298C17.8626 129.458 18.2145 129.428 18.4538 129.194C18.7578 128.908 18.7759 128.442 18.5033 128.145ZM88.6845 13.0599C90.0747 12.6331 91.4781 12.2139 92.9083 11.8098C93.3057 11.7006 93.5276 11.2797 93.4318 10.8898C93.3226 10.4923 92.9017 10.2705 92.5118 10.3663C91.0741 10.7837 89.6573 11.1954 88.2671 11.6222C87.8754 11.7523 87.6478 12.1523 87.7703 12.5574C87.822 12.7456 87.9517 12.89 88.1117 12.9811C88.285 13.0797 88.4963 13.1117 88.6921 13.0466L88.6845 13.0599ZM8.13943 64.409C8.49942 64.6138 8.93874 64.4932 9.15692 64.1407C9.87007 62.8875 10.6575 61.6588 11.4716 60.4452C11.7031 60.1004 11.6109 59.642 11.2661 59.4105C10.927 59.1999 10.4629 59.2712 10.2314 59.616C9.38878 60.8486 8.59195 62.1249 7.85028 63.3972C7.64544 63.7572 7.75852 64.2099 8.11851 64.4147L8.13943 64.409ZM5.36945 71.9755C5.88077 70.6427 6.46819 69.3002 7.10893 67.988C7.28711 67.6129 7.13219 67.1717 6.75703 66.9935C6.38186 66.8153 5.94071 66.9703 5.76253 67.3454C5.10661 68.6843 4.50977 70.0743 3.97568 71.4472C3.84693 71.7975 3.97703 72.1893 4.29702 72.3713C4.32369 72.3865 4.36369 72.4093 4.39035 72.4244C4.78069 72.5759 5.21036 72.3792 5.35428 72.0022L5.36945 71.9755ZM13.0009 57.0442C13.0009 57.0442 13.0676 57.0821 13.0942 57.0973C13.4142 57.2793 13.8308 57.1987 14.0529 56.9014C14.9242 55.7734 15.8582 54.6282 16.8247 53.519C17.0886 53.2103 17.0592 52.7347 16.7505 52.4708C16.4418 52.2068 15.9662 52.2362 15.7022 52.545C14.7206 53.6808 13.7656 54.8318 12.8791 55.9864C12.6209 56.3161 12.6922 56.7802 13.0085 57.0308L13.0009 57.0442ZM18.7274 50.3304C18.7274 50.3304 18.8189 50.4177 18.8722 50.4481C19.1655 50.615 19.5327 50.5592 19.772 50.3247C20.7615 49.2992 21.827 48.2641 22.9041 47.2708C23.208 46.9848 23.2262 46.5186 22.9402 46.2147C22.6542 45.9108 22.188 45.8926 21.8841 46.1786C20.7919 47.1985 19.7187 48.247 18.7008 49.2915C18.4102 49.5851 18.4187 50.0665 18.7198 50.3437L18.7274 50.3304ZM55.122 25.6086C55.322 25.7224 55.5884 25.7504 55.8146 25.632C57.1188 25.0151 58.4439 24.3924 59.8032 23.7715C60.1834 23.5996 60.3444 23.1617 60.1724 22.7814C60.0005 22.4012 59.5626 22.2403 59.1823 22.4122C57.8097 23.0255 56.4846 23.6482 55.1652 24.2918C54.7983 24.4713 54.6374 24.9092 54.8093 25.2895C54.8705 25.4302 54.9811 25.546 55.1144 25.6219L55.122 25.6086ZM2.1145 93.2979C2.08142 92.8907 1.72695 92.5831 1.30649 92.6086C0.899365 92.6417 0.591767 92.9962 0.617265 93.4167C0.730303 94.893 0.91759 96.3939 1.16189 97.8567C1.20418 98.0925 1.34533 98.2787 1.53199 98.385C1.67865 98.4684 1.85566 98.4985 2.02877 98.4735C2.43773 98.4061 2.71292 98.0156 2.63799 97.62C2.39184 96.1915 2.21605 94.7324 2.10692 93.3112L2.1145 93.2979ZM32.058 38.7832C32.1286 38.8763 32.201 38.9351 32.2943 38.9882C32.5476 39.1324 32.8577 39.1147 33.0934 38.9487C34.2582 38.1113 35.4574 37.2757 36.6907 36.442C37.0328 36.213 37.1195 35.7505 36.8905 35.4085C36.6616 35.0664 36.1991 34.9797 35.857 35.2086C34.6027 36.0481 33.3827 36.8894 32.2102 37.7402C31.8815 37.9767 31.8081 38.4468 32.0447 38.7756L32.058 38.7832ZM3.97272 76.1051C4.08998 75.7129 3.8723 75.289 3.47254 75.1851C3.08036 75.0678 2.66977 75.2931 2.55251 75.6853C2.12509 77.1188 1.76434 78.5903 1.47394 80.0312C1.41553 80.351 1.57023 80.6684 1.83689 80.8202C1.90355 80.8581 1.97022 80.896 2.05206 80.9073C2.44608 80.9903 2.84517 80.7232 2.92818 80.3292C3.21674 78.9225 3.56806 77.4987 3.97272 76.1051ZM29.717 40.5398C29.4595 40.2168 28.9952 40.1644 28.6798 40.4085C27.496 41.3411 26.3466 42.2756 25.2314 43.2118C24.9217 43.4769 24.8826 43.9488 25.1476 44.2585C25.1991 44.3231 25.2715 44.3819 25.3515 44.4275C25.6182 44.5792 25.9626 44.5633 26.2076 44.3498C27.3019 43.4193 28.4305 42.4906 29.6066 41.5713C29.9296 41.3139 29.982 40.8495 29.7379 40.5341L29.717 40.5398ZM2.25097 84.6211C2.29398 84.2043 2.00412 83.8452 1.58734 83.8022C1.17055 83.7592 0.81146 84.0491 0.768459 84.4659C0.613222 85.9484 0.518901 87.4479 0.493087 88.9511C0.491693 89.2328 0.63674 89.4741 0.876734 89.6107C0.983398 89.6714 1.10524 89.7054 1.22892 89.7052C1.64754 89.7139 1.97422 89.388 1.98297 88.9694C2.01269 87.5213 2.09758 86.0694 2.24339 84.6344L2.25097 84.6211ZM44.4284 30.7844C44.228 30.4233 43.7673 30.3023 43.3986 30.5161C42.1004 31.2776 40.8364 32.041 39.5934 32.7987C39.238 33.02 39.138 33.475 39.3593 33.8304C39.4223 33.9368 39.5138 34.0242 39.6205 34.0849C39.8471 34.2139 40.1421 34.2228 40.3835 34.0778C41.6132 33.3126 42.8695 32.5625 44.1468 31.8067C44.5079 31.6063 44.6289 31.1456 44.4075 30.7902L44.4284 30.7844ZM131.322 168.779C129.846 168.769 128.384 168.731 126.923 168.694C126.504 168.685 126.164 169.004 126.156 169.422C126.154 169.704 126.305 169.966 126.532 170.095C126.638 170.156 126.76 170.19 126.884 170.19C128.345 170.227 129.828 170.259 131.317 170.277C131.723 170.278 132.07 169.946 132.071 169.541C132.073 169.136 131.741 168.788 131.336 168.787L131.322 168.779ZM113.732 167.93C112.255 167.796 110.799 167.656 109.351 167.502C108.934 167.459 108.575 167.749 108.532 168.166C108.502 168.467 108.659 168.75 108.912 168.894C108.992 168.94 109.093 168.979 109.196 168.985C110.657 169.146 112.134 169.28 113.611 169.415C114.014 169.45 114.381 169.147 114.416 168.743C114.452 168.34 114.149 167.973 113.745 167.938L113.732 167.93ZM122.522 168.519C121.041 168.454 119.576 168.361 118.132 168.263C117.72 168.241 117.367 168.552 117.332 168.955C117.309 169.242 117.474 169.512 117.714 169.649C117.807 169.702 117.915 169.728 118.031 169.741C119.497 169.834 120.962 169.926 122.456 170C122.867 170.022 123.207 169.704 123.229 169.292C123.251 168.881 122.94 168.528 122.522 168.519ZM87.6361 164.007C86.1895 163.695 84.758 163.357 83.3474 163.014C82.9477 162.91 82.5428 163.156 82.4523 163.563C82.3729 163.889 82.5334 164.227 82.8133 164.386C82.8667 164.417 82.9334 164.455 83.0019 164.458C84.4258 164.81 85.8648 165.134 87.3248 165.453C87.7322 165.544 88.1237 165.29 88.2143 164.883C88.3048 164.475 88.0511 164.084 87.6437 163.993L87.6361 164.007ZM104.981 166.993C103.514 166.811 102.062 166.602 100.617 166.38C100.208 166.324 99.8222 166.599 99.7659 167.008C99.715 167.314 99.8773 167.619 100.131 167.763C100.211 167.808 100.298 167.84 100.393 167.859C101.838 168.081 103.311 168.284 104.778 168.466C105.188 168.522 105.568 168.227 105.603 167.823C105.659 167.414 105.364 167.034 104.96 166.999L104.981 166.993ZM96.2777 165.694C94.814 165.443 93.3788 165.174 91.9437 164.904C91.5421 164.835 91.1506 165.089 91.06 165.496C91.0016 165.816 91.1563 166.133 91.4229 166.285C91.4896 166.323 91.5562 166.361 91.659 166.366C93.1075 166.643 94.556 166.92 96.0197 167.171C96.4213 167.241 96.807 166.966 96.8767 166.564C96.9464 166.163 96.6717 165.777 96.2701 165.707L96.2777 165.694ZM140.134 168.71C138.648 168.747 137.19 168.765 135.733 168.783C135.328 168.781 134.993 169.121 134.992 169.526C134.991 169.808 135.143 170.036 135.37 170.165C135.477 170.225 135.612 170.267 135.743 170.253C137.214 170.243 138.692 170.22 140.178 170.183C140.591 170.17 140.912 169.824 140.913 169.418C140.901 169.005 140.554 168.684 140.149 168.683L140.134 168.71ZM157.717 167.649C156.246 167.783 154.783 167.903 153.32 168.024C152.913 168.057 152.606 168.411 152.631 168.832C152.645 169.087 152.805 169.302 153.005 169.415C153.125 169.484 153.281 169.52 153.426 169.514C154.889 169.393 156.365 169.28 157.843 169.133C158.251 169.1 158.552 168.724 158.519 168.317C158.486 167.91 158.111 167.608 157.704 167.641L157.717 167.649ZM167.304 167.333C167.25 166.931 166.875 166.629 166.474 166.683C165.007 166.872 163.555 167.035 162.104 167.197C161.689 167.244 161.395 167.606 161.441 168.021C161.476 168.27 161.61 168.469 161.81 168.583C161.943 168.659 162.099 168.695 162.265 168.683C163.716 168.521 165.188 168.352 166.655 168.163C167.057 168.109 167.358 167.734 167.304 167.333ZM148.928 168.331C147.446 168.423 145.992 168.496 144.525 168.561C144.112 168.573 143.791 168.92 143.817 169.341C143.823 169.609 143.976 169.837 144.189 169.958C144.309 170.027 144.444 170.068 144.589 170.062C146.056 169.997 147.53 169.918 149.012 169.826C149.433 169.801 149.74 169.446 149.707 169.039C149.674 168.632 149.327 168.311 148.92 168.344L148.928 168.331ZM38.7825 144.803C37.5329 144.022 36.3118 143.221 35.1059 142.393C34.7629 142.128 34.3027 142.254 34.0787 142.586C33.8472 142.93 33.9394 143.389 34.2709 143.613C35.4768 144.44 36.7246 145.256 37.9875 146.045L38.0142 146.061C38.3609 146.258 38.7926 146.15 39.0165 145.819C39.2347 145.467 39.1292 145.001 38.7901 144.79L38.7825 144.803ZM127.244 3.79588C127.653 3.72854 127.915 3.3304 127.847 2.92143C127.773 2.52579 127.382 2.25061 126.973 2.31794C125.508 2.5965 124.065 2.86931 122.634 3.14971C122.231 3.23797 121.964 3.6152 122.044 4.03175C122.094 4.25428 122.222 4.4329 122.409 4.53912C122.555 4.62257 122.746 4.66028 122.926 4.6219C124.357 4.34151 125.8 4.06869 127.265 3.79014L127.244 3.79588ZM118.286 4.02906C116.827 4.32853 115.382 4.6356 113.963 4.95783C113.56 5.04609 113.298 5.44424 113.386 5.84746C113.436 6.06999 113.571 6.23528 113.745 6.33391C113.905 6.42495 114.082 6.45507 114.276 6.42428C115.695 6.10204 117.133 5.80831 118.591 5.50884C118.995 5.42058 119.249 5.03576 119.168 4.61921C119.08 4.21599 118.682 3.95413 118.279 4.04239L118.286 4.02906ZM79.0852 161.912C77.6631 161.526 76.2487 161.127 74.8551 160.723C74.463 160.606 74.0524 160.831 73.9351 161.223C73.8349 161.554 73.9802 161.919 74.2735 162.086C74.3268 162.117 74.3668 162.139 74.4277 162.156C75.8346 162.569 77.2624 162.975 78.6978 163.368C79.0975 163.472 79.5081 163.247 79.612 162.847C79.716 162.447 79.4774 162.029 79.0909 161.933L79.0852 161.912ZM46.3787 149.196C45.3769 148.662 44.396 148.121 43.436 147.575L42.5427 147.066C42.2397 146.823 41.73 146.975 41.5252 147.335C41.3204 147.695 41.4334 148.147 41.7934 148.352L42.7001 148.868C43.6734 149.422 44.66 149.983 45.6827 150.512C46.0427 150.717 46.4972 150.57 46.6887 150.202C46.8936 149.842 46.752 149.409 46.3787 149.196ZM31.5469 139.839C30.358 138.951 29.2109 138.051 28.0847 137.145C27.7684 136.895 27.2928 136.924 27.0346 137.254C26.7631 137.576 26.8134 138.046 27.1431 138.304C28.275 139.23 29.4487 140.145 30.651 141.041C30.6777 141.056 30.7043 141.071 30.731 141.087C31.051 141.269 31.4675 141.188 31.6972 140.877C31.9421 140.54 31.8708 140.076 31.5469 139.839ZM109.651 5.92845C108.204 6.26976 106.757 6.61108 105.343 6.95423C104.946 7.06341 104.705 7.45581 104.793 7.85903C104.851 8.06823 104.973 8.22594 105.146 8.32457C105.306 8.41561 105.496 8.45332 105.685 8.4016C107.098 8.05845 108.532 7.70955 109.972 7.38156C110.375 7.2933 110.623 6.88757 110.535 6.48434C110.447 6.08112 110.041 5.8326 109.638 5.92086L109.651 5.92845ZM62.373 156.479C61.0002 155.945 59.6349 155.398 58.2906 154.845C57.9078 154.68 57.4724 154.856 57.3209 155.246C57.1713 155.602 57.3147 156.002 57.6347 156.184C57.6613 156.199 57.688 156.214 57.7147 156.229C59.0647 156.803 60.43 157.351 61.8371 157.887C62.2274 158.038 62.6571 157.841 62.801 157.464C62.9526 157.074 62.7691 156.652 62.3788 156.5L62.373 156.479ZM70.6591 159.412C69.2617 158.952 67.8642 158.492 66.4895 157.992C66.1049 157.862 65.6753 158.058 65.5447 158.443C65.4159 158.793 65.5745 159.166 65.8812 159.341C65.9212 159.363 65.9612 159.386 66.0012 159.409C67.3835 159.895 68.7867 160.376 70.205 160.83C70.5896 160.961 71.0135 160.743 71.1517 160.345C71.2823 159.961 71.0646 159.537 70.68 159.406L70.6591 159.412ZM136.552 1.39676C136.484 0.987788 136.094 0.712596 135.698 0.787521C134.235 1.03183 132.773 1.27613 131.336 1.5356C130.928 1.60295 130.652 1.99351 130.733 2.41006C130.775 2.64593 130.916 2.83214 131.103 2.93835C131.25 3.02181 131.427 3.05193 131.6 3.02688C133.036 2.7674 134.478 2.52885 135.941 2.28454C136.35 2.2172 136.625 1.82664 136.55 1.43101L136.552 1.39676ZM54.2497 153.075C52.9015 152.467 51.5818 151.839 50.2772 151.185C49.902 151.007 49.4609 151.162 49.277 151.516C49.1064 151.878 49.2346 152.304 49.5679 152.494L49.6079 152.516C50.9201 153.157 52.2665 153.8 53.6281 154.416C54.0033 154.594 54.4387 154.418 54.6168 154.043C54.795 153.668 54.6116 153.246 54.244 153.054L54.2497 153.075Z" fill="#3D66FD"/>
</svg>
