<svg width="80" height="80" viewBox="0 0 80 80" fill="none" xmlns="http://www.w3.org/2000/svg">
<path d="M40 80C62.092 80 80 62.092 80 40C80 17.908 62.092 0 40 0C17.908 0 0 17.908 0 40C0 62.092 17.908 80 40 80Z" fill="#141414"/>
<path d="M26.8272 30.123L41.6691 21.5553C42.1814 21.2592 42.8112 21.2592 43.3235 21.5553L52.6713 26.9507C53.6113 27.4912 53.7805 28.7789 53.0144 29.5497L49.8468 32.7361C49.3204 33.2672 48.4979 33.3753 47.8494 32.9993L43.3376 30.3956C42.8159 30.0948 42.172 30.0948 41.6503 30.3956L26 39.5226V31.5565C26 30.9643 26.3149 30.4191 26.8272 30.123Z" fill="#FA8C16"/>
<path d="M52.7042 53.0628L43.3187 58.477C42.8065 58.7731 42.1767 58.7731 41.6691 58.477L26.8272 49.9092C26.3149 49.6132 26 49.068 26 48.4805V41.2522L33.6466 36.8203V44.0627C33.6466 44.6549 33.9615 45.2 34.4737 45.4914L41.6691 49.6461C42.1814 49.9421 42.8112 49.9421 43.3187 49.6461L47.8729 47.0189C48.5214 46.6429 49.3392 46.751 49.8656 47.2821L53.0426 50.4591C53.8134 51.2299 53.6442 52.5176 52.7042 53.0628Z" fill="white"/>
</svg>
