<svg width="80" height="80" viewBox="0 0 80 80" fill="none" xmlns="http://www.w3.org/2000/svg">
<circle cx="40" cy="40" r="40" fill="#FAA00D"/>
<path fill-rule="evenodd" clip-rule="evenodd" d="M65.3135 36.2973L41.641 64.0262L40.5785 65.3333L15.351 36.5769L15.431 36.5441L15.3335 36.529L25.1385 20.0151L25.1435 20.0201L25.1385 20H55.7735L55.7685 20.0176L65.3335 36.2948L65.3135 36.2973ZM32.4736 37.4532L27.0486 46.7063L40.4286 62.0994L53.8361 46.5803L48.5311 37.4255L32.4736 37.4532ZM29.9284 37.4559L25.5284 44.9586L19.0234 37.4736L29.9284 37.4559ZM49.836 35.2723L62.221 35.2521L54.446 22.1357L42.241 22.1609L49.836 35.2723ZM51.0811 37.4206L61.7636 37.4029L55.3636 44.8124L51.0811 37.4206ZM47.2862 35.2774L40.5587 23.662L33.7337 35.2976L47.2862 35.2774ZM18.5384 35.3252L26.2884 22.1962L38.8884 22.171L31.1884 35.3026L18.5384 35.3252Z" fill="white"/>
</svg>
