<svg width="80" height="80" viewBox="0 0 80 80" fill="none" xmlns="http://www.w3.org/2000/svg">
<circle cx="40" cy="40" r="40" fill="#EDF0F4"/>
<path d="M21.5732 34.582L16.6665 39.4878H26.4792L21.5732 34.582Z" fill="#A02870"/>
<path d="M26.4782 40.5125H16.6685L21.5731 45.4179L26.4782 40.5125Z" fill="#80286C"/>
<path d="M33.1334 33.8574L28.2271 28.9514V38.7628L33.1334 33.8574Z" fill="#C42C79"/>
<path d="M27.2028 38.7628V28.9514L22.2969 33.8574L27.2028 38.7628Z" fill="#A02870"/>
<path d="M33.8584 33.1326L38.764 28.2275H28.9517L33.8584 33.1326Z" fill="#C42C79"/>
<path d="M33.8585 22.2971L28.9512 27.2035H38.7635L33.8585 22.2971Z" fill="#E4327F"/>
<path d="M45.4176 21.5727L40.5122 16.6667V26.4781L45.4176 21.5727Z" fill="#0A8B4B"/>
<path d="M39.4873 26.4785V16.6667L34.5815 21.5727L39.4873 26.4785Z" fill="#E4327F"/>
<path d="M33.1334 46.1414L28.2271 41.2363V51.0477L33.1334 46.1414Z" fill="#632A69"/>
<path d="M22.2974 46.1414L27.2031 51.0468V41.2363L22.2974 46.1414Z" fill="#80286C"/>
<path d="M46.1419 33.1326L51.0477 28.2275H41.2363L46.1419 33.1326Z" fill="#167B55"/>
<path d="M41.2363 27.2031H51.0481L46.1423 22.2971L41.2363 27.2031Z" fill="#0A8B4B"/>
<path d="M38.7639 52.7959H28.9512L33.8571 57.7023L38.7639 52.7959Z" fill="#402863"/>
<path d="M33.8585 46.8667L28.9521 51.7717H38.7626L33.8585 46.8667Z" fill="#632A69"/>
<path d="M57.7022 33.8576L52.7964 28.9521V38.7626L57.7022 33.8576Z" fill="#21695E"/>
<path d="M46.8662 33.8574L51.7726 38.7634V28.9514L46.8662 33.8574Z" fill="#167B55"/>
<path d="M34.582 58.4267L39.4874 63.3321V53.5208L34.582 58.4267Z" fill="#402863"/>
<path fill-rule="evenodd" clip-rule="evenodd" d="M51.0483 52.7961L46.142 57.7025L41.2356 52.7961H51.0483ZM40.5122 63.3319V53.5212L45.418 58.4268L40.5122 63.3319Z" fill="#223160"/>
<path d="M46.1419 46.8667L41.2368 51.7717H51.0467L46.1419 46.8667Z" fill="#1E4561"/>
<path d="M52.7969 41.2363V51.0472L57.7023 46.1414L52.7969 41.2363Z" fill="#245661"/>
<path d="M46.8662 46.1413L51.7726 51.0472V41.2358L46.8662 46.1413Z" fill="#1E4561"/>
<path d="M58.4269 45.4179L63.3332 40.512H53.5215L58.4269 45.4179Z" fill="#245661"/>
<path d="M58.4267 34.582L53.52 39.4878H63.3331L58.4267 34.582Z" fill="#21695E"/>
</svg>
