<svg width="80" height="80" viewBox="0 0 80 80" fill="none" xmlns="http://www.w3.org/2000/svg">
<circle cx="40" cy="40" r="40" fill="#EDF0F4"/>
<path fill-rule="evenodd" clip-rule="evenodd" d="M49.6245 22.3277C49.0525 22.1698 48.497 21.9572 47.9658 21.6929C47.8429 21.652 47.5767 21.5086 48.4163 21.2834C49.1617 21.0834 49.665 21.3515 49.9978 21.5288C50.0399 21.5512 50.0792 21.5722 50.1159 21.5905C50.3412 21.6929 50.1159 22.041 49.9521 22.2253C49.8657 22.3101 49.7438 22.3482 49.6245 22.3277ZM43.174 22.1026C42.9897 22.1026 42.9282 22.3279 42.9282 22.3279C42.8463 22.4712 43.7473 22.5122 43.9111 22.5122C44.075 22.5122 44.1364 22.205 43.9931 22.1026C43.8916 22.0301 43.6158 22.0602 43.3979 22.084C43.3079 22.0939 43.2278 22.1026 43.174 22.1026ZM21.6312 34.6348C21.6312 34.6348 21.1397 34.6553 21.2216 34.0819C21.3035 33.5085 21.9588 32.8123 22.3479 32.546C22.737 32.2798 22.9417 32.075 22.9417 31.6655C22.9417 31.3823 23.2257 31.1383 23.4482 30.947C23.5476 30.8616 23.6347 30.7867 23.6789 30.7235C23.8223 30.5187 24.3547 30.2525 24.2728 30.6006C24.2412 30.7349 24.1913 30.8387 24.142 30.9415C24.0634 31.1051 23.9861 31.2659 23.9861 31.5426C23.9861 31.9931 24.068 32.3003 24.2933 31.8293C24.5185 31.3583 25.911 29.1672 27.324 28.0204C28.737 26.8737 30.6209 25.6041 30.8667 25.5631C31.1124 25.5222 31.2557 25.686 31.2557 25.9522C31.2557 26.1224 30.9796 26.2925 30.6948 26.4681L30.6948 26.4681C30.534 26.5671 30.3705 26.6679 30.2523 26.7713C30.2222 26.7977 30.1608 26.8485 30.0734 26.921L30.0733 26.921C29.2102 27.636 25.8055 30.4563 24.7643 32.6689C24.5294 32.9956 24.2618 33.2975 23.9656 33.5699C23.7768 33.729 23.6651 33.9218 23.5393 34.139C23.406 34.3693 23.2567 34.627 22.9827 34.901C22.6991 35.1846 22.5724 35.474 22.4756 35.695C22.3907 35.8888 22.329 36.0299 22.2045 36.0682C21.9383 36.1501 21.5902 35.8225 21.795 35.1262C21.9432 34.6223 22.3167 34.2579 22.6825 33.9009L22.6825 33.9008C22.8222 33.7646 22.9607 33.6294 23.0851 33.488C23.5356 32.9761 23.6994 32.5256 23.5766 32.5256C23.4537 32.5256 22.7984 32.6689 22.6141 33.1809C22.5596 33.3322 22.5212 33.4585 22.4884 33.5667C22.4101 33.8242 22.3632 33.9786 22.2045 34.1228C22.1098 34.2103 22.028 34.303 21.9555 34.3851C21.8243 34.5337 21.7235 34.648 21.6312 34.6348ZM31.358 25.5018C31.3745 25.3942 31.4436 25.302 31.5423 25.256C32.0747 24.9693 33.4058 24.6417 33.4058 24.6417C32.9269 24.9186 32.4621 25.2193 32.0133 25.5427C31.8085 25.727 31.5218 25.8499 31.3989 25.6861C31.3661 25.6305 31.3518 25.566 31.358 25.5018Z" fill="black"/>
<path fill-rule="evenodd" clip-rule="evenodd" d="M39.9794 22.7167C40.9009 22.5119 44.0544 22.0409 48.9691 23.9453C48.9691 23.9453 49.1329 24.0887 48.9282 24.3549C48.8543 24.5028 48.7044 24.5975 48.5391 24.6006C48.5391 24.6006 48.0886 24.4368 47.0237 24.0273C45.9589 23.6177 44.1773 23.4129 43.4811 23.4334C43.0639 23.4457 42.5512 23.3697 41.9782 23.2849C41.5948 23.2281 41.1844 23.1673 40.7575 23.1262C40.4867 23.1094 40.2187 23.0613 39.9589 22.9829C39.9037 22.9589 39.8698 22.9025 39.8744 22.8425C39.879 22.7825 39.9211 22.732 39.9794 22.7167ZM22.4504 36.9896C22.7166 37.2763 22.9009 36.9896 22.9009 36.9896C23.2635 36.7217 23.7352 35.9804 24.0266 35.5226C24.1138 35.3856 24.1848 35.2741 24.232 35.2081C24.4367 34.9214 25.604 33.3036 25.9726 32.8531C26.0567 32.7502 26.1046 32.6559 26.1627 32.5414C26.3592 32.1542 26.6728 31.5361 28.9009 29.5767C31.7883 27.0374 35.0238 24.3958 38.9965 24.2524C42.9692 24.1091 47.5562 26.976 47.5562 26.976C47.8214 26.8567 47.9404 26.5455 47.8224 26.2797C43.3378 23.4948 39.6722 23.2081 37.8907 23.5562C36.1091 23.9043 34.4299 24.8258 33.2012 25.5221C31.9926 26.2069 29.6347 28.1005 28.2717 29.1952L28.2046 29.249C27.0152 30.247 25.9618 31.3967 25.0715 32.6688C24.7234 33.2422 23.4333 35.29 22.9828 35.6995C22.5323 36.1091 22.1842 36.7029 22.4504 36.9896Z" fill="black"/>
<path fill-rule="evenodd" clip-rule="evenodd" d="M45.0989 21.9181C45.0426 21.9382 45.005 21.9915 45.005 22.0512C45.005 22.111 45.0426 22.1643 45.0989 22.1844C45.4453 22.3392 45.81 22.4493 46.1842 22.512C46.7576 22.553 48.3139 23.0444 49.0511 23.4335C49.5221 23.6792 49.7678 22.8192 49.4607 22.7168C49.3716 22.6838 49.2607 22.6423 49.1356 22.5955C48.4841 22.3516 47.446 21.9631 47.0852 21.8772C46.6962 21.7748 45.6723 21.7134 45.0989 21.9181ZM48.4575 25.0308C48.4575 25.0308 48.6418 25.6861 48.0275 25.727C47.7249 25.7472 46.9654 25.3899 46.1575 25.0098C45.3249 24.6181 44.4408 24.2022 43.9524 24.1502C42.9899 24.0478 43.6452 23.4335 44.8944 23.7816C46.1435 24.1297 48.4575 25.0308 48.4575 25.0308ZM46.4188 27.6843C45.0772 26.9095 41.8315 25.035 36.6006 25.7476C36.1384 25.8036 35.7432 26.1088 35.4413 26.3419C35.3019 26.4496 35.1823 26.5419 35.0853 26.5872C34.4846 26.8725 33.9092 27.2081 33.3652 27.5906C32.265 28.3779 31.2432 29.2694 30.314 30.2527C29.3925 31.2766 28.2252 33.4063 27.959 33.9387C27.6928 34.4711 26.6484 35.6384 26.3617 35.9455C26.0751 36.2527 25.3583 37.809 24.8873 38.9148C24.4163 40.0206 23.802 39.8773 23.9044 39.0377C24.0068 38.1981 25.7065 35.8636 26.0955 35.3926C26.4846 34.9216 28.5938 31.8704 28.6962 31.6042C28.7986 31.338 28.4914 31.2766 28.2252 31.6042C28.1155 31.7393 27.8248 32.1702 27.4923 32.663C27.0182 33.3657 26.4591 34.1943 26.2184 34.4711C25.8088 34.9421 23.9863 37.9319 23.9863 37.9319C23.9863 37.9319 23.7406 38.5872 23.3515 38.3824C22.9624 38.1776 23.0853 37.6657 23.5358 37.1128C23.737 36.8658 24.5386 35.7082 25.386 34.4842C26.4362 32.9675 27.5568 31.349 27.6928 31.2356C27.7809 31.1622 27.9481 31.0914 28.1537 31.0043C28.5213 30.8486 29.0116 30.6409 29.3925 30.2732C29.5996 30.0731 29.8093 29.8257 30.0267 29.5693C30.4324 29.0906 30.865 28.5802 31.3583 28.2868C31.5187 28.1915 31.7359 28.0053 32.0145 27.7666C33.0522 26.8773 34.9408 25.2588 37.9112 24.8875C41.6791 24.4165 45.7338 26.0547 47.3925 27.4472C47.3925 27.4472 47.5153 27.9182 47.0853 28.0001C46.9953 28.0173 46.7737 27.8893 46.4188 27.6843Z" fill="black"/>
<path d="M29.3308 32.4028C29.3308 32.4028 30.9281 29.9864 32.6277 28.8192C34.3274 27.652 35.3103 26.8329 35.8428 26.6281C36.3752 26.4233 38.1977 25.4813 42.3342 26.4233C46.4707 27.3653 46.9622 28.7168 46.7779 28.983C46.5936 29.2492 45.9383 28.8397 44.9963 28.3277C44.0544 27.8158 42.2728 27.0172 40.8393 27.0581C39.4059 27.0991 36.58 28.082 36.3957 28.2458C36.2114 28.4096 36.1909 27.9182 36.6823 27.8158C37.1738 27.7134 37.481 27.3243 37.7881 27.2834C38.0953 27.2424 38.5458 27.14 38.5458 26.8943C38.5458 26.6486 37.5219 26.6895 37.01 26.8943C36.498 27.0991 34.5117 28.2253 34.1431 28.4301C33.7745 28.6349 33.283 28.7782 33.2011 29.0854C33.1192 29.3926 32.5049 30.1093 32.1977 30.2731C31.8905 30.4369 30.3547 31.6451 30.1909 31.9318C30.0457 32.2671 29.6915 32.461 29.3308 32.4028Z" fill="black"/>
<path fill-rule="evenodd" clip-rule="evenodd" d="M35.1058 29.5564C34.6348 29.9045 34.8805 29.966 34.8805 29.966C35.5762 30.1092 35.863 29.9254 36.66 29.4144L36.6621 29.4131C37.4608 28.9011 39.4061 28.1639 41.3311 28.2254C42.9565 28.2772 45.1953 29.7894 45.9265 30.2832C46.0612 30.3742 46.1447 30.4306 46.1638 30.437C46.2867 30.4779 46.6143 29.6998 46.1638 29.3107C45.7133 28.9216 43.1331 27.611 40.901 27.4882C38.6689 27.3653 35.5768 29.2083 35.1058 29.5564ZM33.5699 30.1503C32.7098 30.8056 32.505 30.4984 32.505 30.4984C32.5198 30.2919 33.3631 29.7667 33.895 29.4355C34.1016 29.3069 34.2612 29.2075 34.3071 29.1674C34.4709 29.024 34.6961 29.3517 34.6142 29.3517C34.5706 29.3517 34.5212 29.3923 34.3547 29.5292C34.2085 29.6494 33.972 29.8439 33.5699 30.1503Z" fill="black"/>
<path d="M37.3791 29.843C37.332 29.8301 37.2964 29.7913 37.2877 29.7433C37.279 29.6952 37.2986 29.6464 37.3381 29.6177C38.6651 28.7234 40.2982 28.4057 41.8637 28.7372C44.6282 29.3311 45.775 30.6416 45.8364 30.9488C45.8978 31.256 45.7955 31.9727 45.3859 31.8293C44.9763 31.686 43.6453 29.6587 41.4951 29.4744C39.4268 29.2901 38.9559 30.2116 37.3791 29.843Z" fill="black"/>
<path fill-rule="evenodd" clip-rule="evenodd" d="M40.2249 30.3345L39.9792 30.2525C39.9382 30.2321 39.9587 30.1911 39.9792 30.1911C40.3273 30.1092 41.4945 29.8839 42.5594 30.273C43.3165 30.5857 44 31.053 44.5662 31.645C44.5864 31.6649 44.5903 31.6961 44.5757 31.7204C44.5612 31.7447 44.5318 31.7559 44.5048 31.7474L40.2249 30.3345ZM25.3173 40.7781C25.3173 40.7781 25.1944 41.1672 24.8463 40.8805C24.5318 40.6214 24.6853 40.2286 24.8085 39.9136L24.8085 39.9135L24.8086 39.9134C24.8217 39.8798 24.8345 39.8472 24.8463 39.8156C24.9692 39.488 25.9112 37.5631 26.1364 37.3378C26.3617 37.1126 27.2013 36.1092 27.2013 35.8839C27.2013 35.6586 27.4265 36.5187 26.5665 37.8293C26.1435 38.5061 26.0263 38.9262 25.9075 39.3519C25.7963 39.7506 25.6837 40.1542 25.3173 40.7781ZM25.7064 42.0681C25.9317 42.3343 26.0546 42.0681 26.0546 42.0681C26.3119 41.6549 26.5247 41.2156 26.6894 40.7575C27.0041 39.9799 26.9841 39.0851 26.9773 38.7845L26.9773 38.7845C26.9766 38.7526 26.9761 38.7274 26.9761 38.7098C26.9761 38.5255 26.9556 37.8906 26.7713 38.1773C26.6714 38.3327 26.5174 38.8249 26.3549 39.3442L26.3549 39.3442L26.3549 39.3443C26.2175 39.7832 26.0741 40.2415 25.9522 40.5323C25.686 41.1671 25.4812 41.8019 25.7064 42.0681ZM27.1193 43.3174C27.1193 43.3174 26.8736 43.727 26.5664 43.2355C26.3533 42.8977 26.3533 42.4675 26.5664 42.1297C26.6161 42.0404 26.6753 41.8549 26.7325 41.6757C26.7934 41.4852 26.8519 41.3019 26.8941 41.2492C26.976 41.1468 27.0784 41.3925 27.1193 41.6997C27.1413 41.8646 27.2047 42.0414 27.2586 42.1919C27.3051 42.3217 27.3446 42.432 27.3446 42.4983C27.3446 42.6417 27.3036 43.1127 27.1193 43.3174ZM27.5493 43.4811C27.6203 43.5814 27.6756 43.6919 27.7132 43.8088C27.738 43.9166 27.738 44.0286 27.7132 44.1364C27.6722 44.3412 27.5084 44.5665 27.4879 44.3822C27.4786 44.2984 27.427 44.2358 27.3754 44.1732C27.3134 44.098 27.2515 44.0229 27.2627 43.9112C27.2831 43.7064 27.4879 43.4402 27.5493 43.4811ZM28.3482 37.6655C28.5521 36.5164 29.0454 35.4381 29.7817 34.5324C30.9694 33.14 31.5223 32.9147 31.5223 32.9147C31.5223 32.9147 31.6861 32.8737 31.6042 33.2014C31.5533 33.405 31.2967 33.7748 31.0852 34.0796L31.0852 34.0796C30.9564 34.2652 30.8443 34.4267 30.8056 34.512C30.7562 34.6207 30.5589 34.8487 30.3679 35.0693L30.3679 35.0693L30.3679 35.0693C30.1633 35.3057 29.966 35.5337 29.966 35.5973C29.966 35.6688 30.0771 35.664 30.178 35.6596C30.2504 35.6565 30.3175 35.6535 30.3346 35.6792C30.3396 35.6866 30.346 35.6944 30.3532 35.703C30.4055 35.7656 30.4966 35.8747 30.3346 36.2526C30.2953 36.3443 30.2318 36.4852 30.156 36.6535C29.8764 37.2747 29.4292 38.2678 29.4131 38.5256C29.3926 38.8533 28.3278 41.3106 28.2254 41.3106C28.123 41.3106 27.8977 41.2901 27.9182 40.5324C27.9387 39.7748 29.065 36.9283 29.3721 36.4574C29.4206 36.3831 29.4619 36.3205 29.4967 36.2679C29.6171 36.0855 29.6586 36.0226 29.6446 36.0057C29.6372 35.9968 29.6145 36.0006 29.5799 36.0064L29.5769 36.0068C29.454 36.0273 28.6964 36.8464 28.594 37.4198C28.4916 37.9932 28.3482 37.6655 28.3482 37.6655ZM30.3345 38.116C30.9283 38.1569 31.215 37.4812 31.215 37.4812C31.215 37.4812 31.6041 35.9863 31.6655 35.5358C31.7159 35.1665 32.1926 34.2472 32.487 33.6794C32.5518 33.5544 32.6078 33.4464 32.6484 33.3651C32.7433 33.1754 32.8744 33.0148 32.9868 32.8771C33.1414 32.6877 33.2606 32.5417 33.2013 32.4231C33.099 32.2184 32.4846 32.4641 32.2594 32.6689C32.0341 32.8736 30.9283 35.3105 30.785 35.9453C30.7406 36.1419 30.6236 36.4209 30.5008 36.7137C30.227 37.3665 29.9245 38.0877 30.3345 38.116Z" fill="black"/>
<path d="M30.6414 38.9147C30.6804 38.8144 30.676 38.7025 30.6295 38.6055C30.5829 38.5085 30.4983 38.4351 30.3957 38.4028C30.0066 38.239 29.9861 38.3618 29.8018 38.669C29.6175 38.9762 28.4298 41.8431 28.4298 42.2731C28.4298 42.7031 28.5527 43.5018 28.696 43.6246C28.8394 43.7475 28.9827 43.5222 28.9827 43.2151C29.0314 42.8376 29.1878 42.4821 29.4332 42.1912C29.6802 41.8482 29.7696 41.4163 29.679 41.0035C29.597 40.512 30.3752 39.7134 30.3752 39.7134C30.3785 40.2878 30.3512 40.862 30.2933 41.4335C30.2114 41.9454 29.679 42.355 29.5561 42.5803C29.4332 42.8055 29.3718 43.6861 29.2694 43.9523C29.1676 44.2768 29.1465 44.6212 29.208 44.9557C29.2694 45.2219 29.4332 45.8772 29.5356 45.4062C29.638 44.9352 30.0066 43.5427 30.109 43.5632C30.2114 43.5837 30.1909 45.099 30.1295 45.4062C30.068 45.7134 29.9861 47.2082 29.9861 47.3925C29.9861 47.5768 29.4332 48.4164 29.3308 48.7236C29.2284 49.0308 28.6141 50.157 28.6141 50.2185C28.6141 50.2799 29.2284 50.2185 29.6175 49.9113C29.9153 49.6522 30.0931 49.2818 30.109 48.8874C30.109 48.6417 30.068 48.0478 30.2114 47.6997C30.3547 47.3516 30.7233 46.5325 30.7848 46.2048C30.836 45.366 30.836 44.5249 30.7848 43.6861C30.7438 43.2151 30.8462 41.2287 30.9895 40.8192C31.1329 40.4096 31.1534 40.2048 31.2557 40.2048C31.3581 40.2048 31.2967 41.454 31.2557 41.8431C31.2148 42.2321 31.1124 43.5018 31.1124 43.6861C30.9373 45.2516 31.1848 46.8355 31.8291 48.2731C31.8291 48.2731 31.9315 48.7236 32.423 48.4164C32.9145 48.1093 32.1977 46.7372 32.0749 46.3482C31.952 45.9591 31.5424 43.9318 31.6858 43.6451C31.8291 43.3584 32.6482 46.471 32.6687 46.7782C32.6892 47.0854 32.7916 48.0478 32.9554 48.0683C33.1192 48.0888 33.795 47.6792 33.795 47.5973C33.7942 47.379 33.7302 47.1657 33.6107 46.983C33.4264 46.6758 32.4435 44.157 32.2592 42.0683C32.0749 39.9796 32.4025 36.4164 32.5663 36.0478C32.7301 35.6792 33.4878 34 33.6721 33.7338C33.8564 33.4676 34.3889 32.3618 34.4912 32.3209C34.5936 32.2799 34.696 32.2799 34.696 32.4028C34.5708 32.8277 34.4204 33.2449 34.2455 33.6519C34.1226 34 33.4674 35.0444 33.3445 35.3925C32.9702 36.4988 32.7363 37.6478 32.6482 38.8123C32.4639 40.6553 32.894 43.768 33.0168 44.3823C33.1397 44.9966 33.9179 47.0854 34.3479 47.2697C34.7779 47.454 35.1465 46.9011 35.0851 46.7987C35.0237 46.6963 34.1226 45.0581 33.9179 44.3823C33.7131 43.7065 33.3445 42.0888 33.4059 41.7202C33.4674 41.3516 33.9383 44.7919 35.5561 46.5939C35.5561 46.5939 35.7609 46.7168 36.1295 46.471C36.4981 46.2253 36.4776 46.0205 36.1295 45.6314C35.7813 45.2424 34.5936 42.9489 34.4298 42.355C34.266 41.7611 33.5493 39.7953 33.5083 39.7338C33.4299 39.0375 33.4575 38.3332 33.5902 37.6451C33.7745 36.785 34.0407 35.5768 34.0612 35.2492C34.0817 34.9215 34.6141 34.1843 34.737 34.0205C34.8598 33.8567 35.1465 33.0785 35.2899 32.5256C35.4332 31.9727 35.7199 31.6041 35.4742 31.5632C35.2284 31.5222 34.3274 31.6656 34.1636 31.8499C33.9998 32.0342 33.3445 32.4233 31.952 35.5973C31.952 35.5973 31.5629 36.3345 31.5629 36.7646C31.5627 37.3215 31.3911 37.8648 31.0714 38.3209C30.9548 38.5368 30.8102 38.7365 30.6414 38.9147Z" fill="black"/>
<path fill-rule="evenodd" clip-rule="evenodd" d="M37.0922 31.604C37.1741 31.6859 36.8669 32.0545 36.8669 32.0545C36.8669 32.0545 36.1912 33.5494 36.0273 33.8156C35.8635 34.1228 34.8396 36.232 35.0649 37.0921C35.2601 37.8374 35.1785 38.6135 35.1132 39.2338C35.1032 39.3293 35.0935 39.421 35.0854 39.5084C35.0239 40.1637 35.9045 42.1706 36.0683 42.4368C36.2321 42.703 37.5017 44.9965 37.5017 44.9965L38.0137 45.5903C38.0137 45.5903 37.3584 46.348 36.6826 45.5903C36.0069 44.8327 34.471 41.2491 34.2253 39.488C34.0494 38.3674 34.0632 37.2251 34.2662 36.1091C34.3041 35.9388 34.5169 35.4753 34.7511 34.9655C35.0235 34.3722 35.3249 33.716 35.413 33.3856C35.6465 32.7 35.9775 32.0517 36.3959 31.4607C36.5598 31.2559 37.0103 31.5221 37.0922 31.604ZM30.6903 47.3952C30.771 47.3376 30.8714 47.3145 30.9692 47.331C31.3582 47.331 31.4811 47.843 31.4811 48.1911C31.4556 48.5646 31.304 48.9184 31.0511 49.1945C30.8258 49.4607 30.3548 49.5836 30.2934 49.5426C30.2599 49.5203 30.3179 49.3575 30.3809 49.1809C30.4332 49.0342 30.4889 48.8779 30.4982 48.785C30.4837 48.4022 30.4974 48.0189 30.5391 47.6382C30.5552 47.5403 30.6096 47.4529 30.6903 47.3952Z" fill="black"/>
<path d="M36.314 36.5598C36.3289 36.2318 36.391 35.9077 36.4983 35.5974C36.6417 35.1878 36.8055 34.512 36.4983 34.3482C36.1911 34.1844 35.6587 34.3072 35.6587 35.454C35.6587 36.6008 35.3925 37.9113 35.6587 39.6315C35.9249 41.3516 37.215 44.3823 38.9352 45.9386C40.6553 47.495 40.3481 46.9625 41.1877 47.7202C42.0273 48.4779 46.2867 49.2765 47.4744 49.1332C48.6621 48.9898 48.9693 48.4165 49.0307 48.2117C49.0922 48.0069 48.9283 47.6588 48.7645 47.8226C48.6007 47.9864 47.7202 48.7851 44.8328 48.1503C41.9454 47.5154 41.1877 46.7987 41.0239 46.6554C40.8601 46.512 39.2423 44.8533 39.058 44.6895C38.8737 44.5257 37.0103 41.9864 37.0103 41.6178C37.0103 41.2492 39.4266 45.8567 42.6417 47.0854C45.8567 48.3141 47.0444 48.1093 47.6587 47.9045C48.2731 47.6997 48.9079 47.5154 48.9079 47.2902C48.9079 47.0649 48.8874 46.6349 48.6826 46.6349C48.4778 46.6349 47.2696 47.3516 46.6963 47.2902C46.1229 47.2288 45.2833 46.8602 44.5051 46.8602C43.727 46.8602 42.0888 45.8977 41.6792 45.5086C41.2696 45.1195 39.099 44.0137 37.0103 39.5291C36.9898 39.5496 36.2116 37.2356 36.314 36.5598Z" fill="black"/>
<path d="M41.966 48.5394C41.966 48.5394 41.1059 47.966 40.9421 47.9865C40.7782 48.007 40.7987 48.2937 40.8192 48.6008C40.8397 48.908 40.9625 49.2356 41.1673 49.2766C41.3721 49.3176 41.925 49.1947 42.0479 49.2766C43.0358 49.7746 44.117 50.0606 45.2219 50.1162C46.8806 50.1776 47.2083 50.2391 47.6793 50.1981C48.1503 50.1571 48.9489 49.8705 49.0103 49.6862C49.0718 49.5019 49.0308 48.9285 48.867 48.9285C48.7032 48.9285 48.5189 49.7476 45.3857 49.379C42.2936 48.9694 41.966 48.5394 41.966 48.5394Z" fill="black"/>
<path d="M42.3754 49.8089C42.3754 49.8089 41.7406 49.3584 41.5563 49.5427C41.372 49.727 41.331 50.2799 41.9659 50.4232C42.6007 50.5666 44.0341 50.9761 44.3618 51.0376C45.0037 51.1574 45.6543 51.2259 46.3071 51.2424C47.0034 51.2424 47.6996 50.9147 47.9863 50.9147C48.273 50.9147 49.1331 50.9147 49.174 50.7304C49.1786 50.5144 49.1439 50.2993 49.0717 50.0956C49.0512 50.0137 48.8054 50.0342 48.6416 50.1161C48.1134 50.3251 47.5642 50.4761 47.0034 50.5666C46.0633 50.6219 45.12 50.553 44.1979 50.3618C43.579 50.2173 42.9702 50.0326 42.3754 49.8089Z" fill="black"/>
<path d="M48.5394 51.5905C48.5394 51.5905 47.2288 52.4915 43.5837 51.9181C39.9387 51.3448 40.8806 49.9113 40.9626 49.9727C41.0445 50.0342 41.3516 50.4642 41.5769 50.5461C41.8021 50.628 44.5257 51.5291 45.2834 51.5495C46.0411 51.57 47.024 51.5291 47.454 51.3857C47.8841 51.2424 48.4574 50.8738 48.6827 51.1809C48.908 51.4471 48.5394 51.5905 48.5394 51.5905Z" fill="black"/>
<path d="M41.4332 51.6315C41.4332 51.6315 41.1056 51.4062 41.1056 51.6315C41.1381 51.9598 41.3401 52.2473 41.638 52.3891C41.9241 52.5332 42.2392 52.6103 42.5595 52.6144C42.9469 52.6453 43.3236 52.7569 43.6653 52.942C43.9725 53.0854 45.0578 53.5154 46.9418 53.1673C48.8257 52.8192 49.2967 52.3687 49.3786 52.2458C49.4402 52.0596 49.4402 51.8586 49.3786 51.6724C49.3377 51.4676 49.1943 51.3857 49.0305 51.5496C48.8667 51.7134 47.7609 52.6963 45.0578 52.512C42.3547 52.3277 41.4332 51.6315 41.4332 51.6315Z" fill="black"/>
<path d="M43.2766 53.1058C43.2766 53.1058 43.0514 52.7781 42.437 52.942C41.8227 53.1058 44.0138 54.273 44.1367 54.3754C44.2596 54.4778 44.4029 54.5392 44.9353 54.4778C45.4678 54.4164 46.9831 54.3344 47.5155 54.2116C48.048 54.0887 49.1128 53.7815 49.4405 53.372C49.7681 52.9624 49.6452 52.6962 49.3381 52.7372C49.0309 52.7781 47.1469 53.9454 45.263 53.7815C43.379 53.6177 43.2766 53.1058 43.2766 53.1058Z" fill="black"/>
<path fill-rule="evenodd" clip-rule="evenodd" d="M38.7918 31.8499C38.6914 31.9989 38.5746 32.1363 38.4437 32.2594C38.0956 32.669 37.6451 33.8362 37.6041 34.1229C37.5631 34.4096 37.686 35.2082 37.8089 35.6997C37.8638 35.9193 37.9759 36.556 38.0978 37.2481C38.2487 38.1046 38.4145 39.0459 38.5051 39.3857C38.6007 39.7439 38.8842 40.332 39.1121 40.8046C39.2751 41.1425 39.4096 41.4215 39.4266 41.5154C39.4676 41.7406 41.3106 43.6451 41.5563 43.7475C41.6499 43.7865 41.9335 44.0274 42.2885 44.3289C42.8656 44.8191 43.6313 45.4695 44.0751 45.6724C44.7918 46 46.942 46.3891 47.3515 46.4096C47.7611 46.4301 47.4744 46.6963 47.4744 46.6963C45.5092 47.0944 43.4686 46.5993 41.9044 45.3447C37.8908 42.1912 37.1536 39.2628 36.8259 36.4164C36.4983 33.57 37.5427 31.5222 37.8498 31.4608C38.157 31.3993 38.7918 31.7884 38.7918 31.8499ZM45.0171 54.9694C44.9762 54.7851 45.8977 54.7646 45.8977 54.7646C47.1776 54.9162 48.7485 54.0843 49.3799 53.75L49.3799 53.75L49.38 53.7499L49.3801 53.7499C49.5163 53.6777 49.6088 53.6288 49.6451 53.6179C49.8499 53.5564 49.9318 53.8841 49.9318 54.1708C49.9318 54.379 49.7265 54.4684 49.4336 54.5959L49.4336 54.596C49.3233 54.644 49.2006 54.6974 49.0717 54.7646C48.6913 54.9631 47.1221 55.2417 46.3167 55.3847C46.1249 55.4188 45.9765 55.4451 45.8977 55.4609C45.5305 55.4962 45.1799 55.3004 45.0171 54.9694ZM46.7166 56.0136C46.7166 55.9112 47.7201 55.5835 47.7201 55.5835C48.0477 55.563 49.4402 54.8054 49.5835 54.7235C49.7202 54.6614 49.8769 54.6614 50.0136 54.7235C50.1385 54.9477 50.1887 55.2059 50.1569 55.4607C50.1272 55.6388 49.6563 55.7524 49.2591 55.8482C49.1084 55.8845 48.9682 55.9183 48.8668 55.9521C48.7184 56.0016 48.5135 56.1076 48.3002 56.2178C47.984 56.3813 47.6495 56.5542 47.4538 56.5665C47.1262 56.5869 46.7166 56.1159 46.7166 56.0136ZM48.6824 57.1401C48.4562 57.2501 48.1919 57.2501 47.9657 57.1401C47.5766 56.9558 47.72 56.7305 48.0476 56.5667C48.2507 56.4652 48.5639 56.34 48.8263 56.2352L48.8264 56.2352C48.9873 56.1708 49.1292 56.1142 49.2148 56.0752C49.4401 55.9728 50.0544 55.7476 50.1568 55.8295C50.2647 55.9423 50.3361 56.0851 50.3616 56.2391C50.3616 56.3414 48.6824 57.1401 48.6824 57.1401ZM48.6212 57.6519C48.6212 57.7338 49.2355 58.0614 49.2355 58.0614C49.4813 58.1024 50.8123 57.7543 50.8123 57.4471C50.8123 57.1399 50.4847 56.8328 50.4847 56.8328C50.4847 56.8328 49.2355 57.3447 49.0512 57.3447C48.8655 57.3686 48.704 57.4839 48.6212 57.6519ZM50.8123 58.7373C50.6364 58.7705 50.4558 58.7705 50.2799 58.7373C50.1818 58.7046 50.0663 58.6138 49.9674 58.5361C49.8804 58.4678 49.8063 58.4096 49.768 58.4096C49.6861 58.4096 49.9523 58.2458 50.1571 58.2253C50.2835 58.2127 50.4645 58.161 50.6135 58.1185L50.6135 58.1185L50.6135 58.1185C50.7058 58.0921 50.7858 58.0693 50.8328 58.0615C50.9557 58.041 51.1195 58.2048 51.1195 58.4096C51.1195 58.6144 50.8123 58.7373 50.8123 58.7373Z" fill="black"/>
<path d="M39.8567 32.5666C39.8567 32.5666 40.2253 32.4642 40.2458 32.3413C40.2663 32.2185 40.2048 31.9318 39.7134 31.8499C39.2219 31.768 38.7509 32.1161 38.4233 32.9966C38.0956 33.8772 38.239 35.7407 38.669 36.8874C39.099 38.0342 38.8533 38.9557 39.6519 40.4915C40.4506 42.0273 40.4301 42.0273 40.7373 42.2731C41.0444 42.5188 42.5188 43.9523 42.7441 44.1775C42.9693 44.4028 44.2799 45.2628 44.5257 45.2628C44.7714 45.2628 44.8943 44.8533 44.8738 44.6485C44.8533 44.4437 44.8328 44.3413 44.4847 44.3209C44.1366 44.3004 43.6451 43.727 43.6451 43.727C43.6451 43.727 41.7816 41.9659 41.6383 41.884C41.4949 41.8021 39.9796 40.082 39.9796 39.8772C39.9796 39.6724 40.0001 39.3857 40.1229 39.5495C40.2458 39.7134 41.1263 40.983 41.6997 41.5154C42.2731 42.0478 44.0956 43.5837 44.5257 43.768C44.9557 43.9523 45.1605 43.9727 45.2014 43.6246C45.2424 43.2765 45.4472 43.1127 45.6315 43.2151C45.8158 43.3175 47.1878 44.1161 47.6178 44.0547C48.0478 43.9932 48.6827 43.3584 48.8874 43.3994C49.0922 43.4403 48.5188 44.0751 48.3345 44.1775C48.1502 44.2799 48.4779 44.5052 48.5393 44.5461C48.7717 44.6722 49.0581 44.6395 49.256 44.4642C49.5837 44.1775 49.6246 43.7884 49.3994 43.2765C49.1741 42.7646 49.1127 41.9045 49.0513 41.7407C48.9898 41.5768 48.9079 41.3311 48.7441 41.7407C48.5803 42.1502 48.2731 42.9898 47.2083 43.0308C45.9448 43.1338 44.6849 42.7935 43.6451 42.0683C42.3345 41.2082 40.7577 40.0205 39.5291 36.5188C38.3004 33.0171 39.8567 32.5666 39.8567 32.5666Z" fill="black"/>
<path fill-rule="evenodd" clip-rule="evenodd" d="M48.5804 40.0205C48.4694 39.9676 48.3369 39.9924 48.2527 40.082C48.1913 40.1844 48.1094 39.7134 48.2322 39.2629C48.3551 38.8124 48.2527 38.1366 48.1094 38.1775C48.0814 38.1855 48.0167 38.2591 47.9215 38.3674C47.5294 38.8134 46.6203 39.8476 45.6316 39.3038C44.4029 38.6281 42.867 36.7031 42.437 35.8431C42.3982 35.7655 42.3586 35.687 42.3187 35.6079L42.3187 35.6077C41.9159 34.809 41.4819 33.9483 41.5565 33.4267C41.5565 33.4267 41.6179 32.9762 41.6384 32.8533C41.6589 32.7304 41.3926 32.239 41.065 32.3618C40.7373 32.4847 39.9387 32.9352 39.8363 33.2629C39.8129 33.3377 39.7778 33.4115 39.7394 33.492C39.6099 33.764 39.4437 34.1128 39.5701 34.8397C39.696 35.5636 40.0154 36.4447 40.2402 37.0648C40.3079 37.2516 40.367 37.4147 40.4097 37.5427C40.594 38.0956 41.1674 39.3448 41.7817 39.8977C42.3961 40.4506 43.6042 41.5359 44.1367 41.7816C44.2255 41.8226 44.3309 41.8802 44.4515 41.9461L44.4515 41.9461C45.0541 42.2751 46.038 42.8123 47.2493 42.5393C48.7032 42.2117 48.7237 40.7577 48.7237 40.6144C48.71 40.4097 48.6615 40.2089 48.5804 40.0205ZM42.1914 39.5905C42.1734 39.5665 42.0991 39.4545 42.0009 39.3066C41.7643 38.95 41.3892 38.3848 41.3314 38.3414C41.7203 38.6302 42.0834 38.9523 42.4167 39.3039C42.8262 39.7748 43.1948 40.3278 43.1948 40.4916C43.1948 40.4916 42.2529 39.6725 42.1914 39.5905ZM44.8002 40.7085C45.1042 40.9352 45.5628 41.2774 46.4916 41.3106C47.6384 41.3515 47.9251 40.7781 47.8636 40.6962C47.8022 40.6143 47.5769 40.6143 47.3722 40.6962C47.3588 40.7016 47.3429 40.7084 47.3244 40.7164C47.0589 40.8313 46.267 41.174 45.0991 40.3891C43.85 39.5495 42.437 38.0136 42.2732 37.6655C42.24 37.5949 42.1629 37.4645 42.0616 37.2929C41.6632 36.6184 40.889 35.3077 40.9217 34.4914C40.8764 34.2756 40.849 34.0565 40.8398 33.8361C40.8398 33.7133 40.4507 33.9181 40.5121 34.1638C40.5735 34.4095 41.1674 36.5187 41.3927 36.9488C41.6179 37.3788 42.1503 37.9727 42.8261 38.6689C43.0979 38.949 43.3896 39.282 43.6612 39.5922C44.0648 40.053 44.4241 40.4632 44.6077 40.5734C44.666 40.6084 44.7289 40.6552 44.8002 40.7085Z" fill="black"/>
<path fill-rule="evenodd" clip-rule="evenodd" d="M47.9659 37.1947C47.895 37.1947 47.7909 37.2673 47.686 37.3405C47.5181 37.4576 47.3484 37.5759 47.3106 37.3995C47.2811 37.2619 47.346 37.0488 47.4214 36.801C47.5032 36.5325 47.5973 36.2232 47.5973 35.9251C47.5973 35.3517 47.4744 34.2664 47.2082 33.7339C46.942 33.2015 46.6758 32.7305 46.2048 33.0172C45.7751 33.2788 45.942 33.4893 46.1301 33.7263C46.1482 33.7491 46.1664 33.7721 46.1843 33.7954C46.2004 33.8162 46.2183 33.8391 46.2377 33.8638C46.4661 34.1552 46.9011 34.7099 46.9011 35.3517C46.9011 36.0479 46.7987 36.949 46.5325 37.0104C46.2662 37.0718 45.6314 36.8671 45.0581 36.4165C44.4456 35.9578 43.8766 35.4437 43.3584 34.8807C43.1741 34.6145 42.8055 34.0002 42.9079 33.8978C43.0103 33.7954 43.1741 33.7544 43.3379 34.0411C43.5017 34.3278 44.3004 35.1674 44.5052 35.3722C44.8474 35.7143 45.2098 36.0357 45.5905 36.3346C45.6193 36.3539 45.6491 36.3748 45.6794 36.3962L45.6794 36.3962L45.6794 36.3962C45.9073 36.5568 46.1698 36.7418 46.3686 36.4165C46.5939 36.0479 46.6348 35.1674 46.4505 34.8397C46.3988 34.7478 46.3374 34.6364 46.2735 34.5206L46.2734 34.5204L46.2734 34.5203L46.2733 34.5202L46.2733 34.5202L46.2733 34.5202L46.2732 34.5201L46.2732 34.5201L46.2732 34.52L46.2732 34.52C46.1097 34.2236 45.9303 33.8984 45.8567 33.7954L45.8491 33.7847C45.7462 33.6403 45.582 33.4098 45.2424 33.5496C44.8942 33.693 44.9147 33.9797 45.0376 34.0821C45.0556 34.0971 45.083 34.1183 45.1166 34.1445C45.3119 34.2961 45.7194 34.6127 45.7543 34.8397C45.7617 34.888 45.7719 34.9431 45.7822 34.9995L45.7822 34.9995L45.7822 34.9995C45.8291 35.254 45.881 35.5361 45.7133 35.3517C45.6371 35.2678 45.5155 35.113 45.3854 34.9475L45.3854 34.9475L45.3854 34.9475C45.1661 34.6684 44.9228 34.3587 44.8328 34.3073C44.6895 34.2254 43.7065 33.6111 43.7065 33.6111C43.7065 33.6111 42.5188 33.1196 42.4369 32.9967C42.355 32.8739 42.1092 32.8534 42.2935 33.5496C42.3266 33.6746 42.3577 33.8041 42.3894 33.9363C42.5345 34.5406 42.6926 35.1994 43.1127 35.7203C43.3997 36.0524 43.6095 36.4441 43.727 36.8671C43.8294 37.1742 44.8533 38.6896 46.1639 39.0172C47.3632 39.3171 47.8594 38.0735 47.9821 37.7661C47.9935 37.7375 48.0016 37.7171 48.0069 37.7066C48.0683 37.5838 48.1502 37.1947 47.9659 37.1947ZM46.717 38.1163C46.6902 38.3173 46.4353 38.2465 46.1935 38.1792C46.0658 38.1437 45.9418 38.1092 45.8569 38.1163C45.6112 38.1368 45.1606 37.7272 44.874 37.3996C44.5873 37.072 44.362 36.7238 44.4439 36.6829C44.4839 36.6629 44.5922 36.76 44.7355 36.8885L44.7355 36.8885C44.8857 37.0232 45.0744 37.1924 45.263 37.2972L45.3234 37.3308C45.6839 37.5318 46.1407 37.7865 46.4507 37.7477C46.7784 37.7068 46.717 38.1163 46.717 38.1163ZM49.2561 45.0171C49.2561 44.8943 49.5223 44.5871 49.5223 44.5871C49.7418 44.5365 49.7525 44.7502 49.761 44.9186C49.7628 44.9545 49.7645 44.9884 49.7681 45.0171C49.7885 45.181 49.7885 45.3038 49.6452 45.4062C49.5018 45.5086 49.3995 45.4472 49.3995 45.3243C49.3995 45.2629 49.3636 45.2168 49.3278 45.1707C49.2919 45.1247 49.2561 45.0786 49.2561 45.0171ZM49.7885 45.6726C49.7885 45.6726 49.5223 45.8364 49.5223 46.0412C49.512 46.2117 49.512 46.3827 49.5223 46.5532C49.5471 46.6223 49.6127 46.6684 49.6861 46.6684C49.7596 46.6684 49.8252 46.6223 49.85 46.5532C49.8652 46.5228 49.881 46.4946 49.8963 46.4674C49.9635 46.3479 50.0191 46.249 49.9524 46.0822C49.9206 46.0187 49.9135 45.9213 49.9071 45.8342C49.897 45.6967 49.8888 45.5849 49.7885 45.6726ZM49.6449 47.7816C49.6244 47.925 49.993 47.6587 49.993 47.6587L50.021 47.6421C50.2103 47.5295 50.3316 47.4574 50.1363 47.1058C49.9927 46.8473 49.9498 46.891 49.8946 46.9472C49.8711 46.9711 49.8454 46.9973 49.8087 47.0034C49.7113 47.0197 49.6783 47.4089 49.6585 47.6411C49.6534 47.7019 49.6491 47.7519 49.6449 47.7816ZM50.3004 48.1298C50.3004 48.1298 50.4028 47.7407 50.1161 47.9864C49.9959 48.0894 49.9118 48.1348 49.856 48.1649C49.7787 48.2067 49.756 48.2189 49.7679 48.3141C49.7884 48.4779 49.8499 48.7646 50.0137 48.7236C50.032 48.7175 50.054 48.7137 50.0777 48.7095C50.2129 48.686 50.4049 48.6525 50.3004 48.1298ZM50.034 49.4403C49.993 49.1741 50.464 48.9489 50.464 48.9489C50.5685 48.8836 50.573 49.0182 50.5785 49.1828C50.5816 49.2762 50.5851 49.3793 50.6073 49.4608C50.6688 49.6861 50.5049 49.9728 50.4026 49.9728C50.3002 49.9728 50.0749 49.7066 50.034 49.4403Z" fill="black"/>
<path fill-rule="evenodd" clip-rule="evenodd" d="M14.2389 40C14.2389 25.7725 25.7725 14.2389 40 14.2389C46.8327 14.2373 53.3861 16.9508 58.2176 21.7823C63.0491 26.6138 65.7627 33.1672 65.7611 40C65.7611 54.2274 54.2274 65.7611 40 65.7611C25.7725 65.7611 14.2389 54.2274 14.2389 40ZM15.9384 40.0001C15.944 53.2832 26.7167 64.0467 39.9998 64.041C46.3793 64.0405 52.497 61.5046 57.006 56.9918C61.515 52.4789 64.0457 46.359 64.0408 39.9796C64.0351 26.6965 53.2625 15.933 39.9793 15.9386C26.6962 15.9443 15.9327 26.717 15.9384 40.0001Z" fill="black"/>
<path fill-rule="evenodd" clip-rule="evenodd" d="M10 40C10 23.4315 23.4315 10 40 10C56.5681 10.0011 69.9989 23.4319 70 40C70 56.5685 56.5685 70 40 70C23.4315 70 10 56.5685 10 40ZM12.8056 40.0001C12.8056 55.0192 24.981 67.1946 40.0001 67.1946C55.0164 67.1879 67.1879 55.0164 67.1946 40.0001C67.1946 24.981 55.0192 12.8056 40.0001 12.8056C24.981 12.8056 12.8056 24.981 12.8056 40.0001Z" fill="#151515"/>
</svg>
