<svg width="80" height="80" viewBox="0 0 80 80" fill="none" xmlns="http://www.w3.org/2000/svg">
<path d="M40 80C62.092 80 80 62.092 80 40C80 17.908 62.092 0 40 0C17.908 0 0 17.908 0 40C0 62.092 17.908 80 40 80Z" fill="#141414"/>
<path d="M26.8272 30.1232L41.6691 21.5554C42.1814 21.2594 42.8112 21.2594 43.3235 21.5554L52.6713 26.9508C53.6113 27.4913 53.7805 28.779 53.0144 29.5498L49.8468 32.7362C49.3204 33.2673 48.4979 33.3754 47.8494 32.9994L43.3376 30.3958C42.8159 30.095 42.172 30.095 41.6503 30.3958L26 39.5228V31.5566C26 30.9644 26.3149 30.4193 26.8272 30.1232Z" fill="#FA8C16"/>
<path d="M52.7042 53.0629L43.3187 58.4771C42.8065 58.7732 42.1767 58.7732 41.6691 58.4771L26.8272 49.9094C26.3149 49.6133 26 49.0681 26 48.4806V41.2523L33.6466 36.8204V44.0628C33.6466 44.655 33.9615 45.2002 34.4737 45.4916L41.6691 49.6462C42.1814 49.9423 42.8112 49.9423 43.3187 49.6462L47.8729 47.019C48.5214 46.643 49.3392 46.7511 49.8656 47.2822L53.0426 50.4592C53.8134 51.23 53.6442 52.5178 52.7042 53.0629Z" fill="white"/>
</svg>
