<svg width="80" height="80" viewBox="0 0 80 80" fill="none" xmlns="http://www.w3.org/2000/svg">
<circle cx="40" cy="40" r="40" fill="#00AEEF"/>
<path d="M39.5804 36.4318C40.1728 36.3293 40.6955 36.1068 41.1534 35.7693C41.6114 35.4318 42.0444 34.8618 42.4501 34.0818L51.4724 16.6144C51.8258 16.0294 52.2588 15.5644 52.7566 15.1994C53.268 14.8441 53.8771 14.6579 54.4988 14.6669H60.2208L48.986 35.2118C48.4882 36.0568 47.9232 36.7443 47.2935 37.2768C46.6644 37.8023 45.9472 38.2111 45.1755 38.4843C46.3801 38.7968 47.3881 39.3043 48.2119 40.0168C49.0233 40.7168 49.7973 41.7068 50.5166 42.9793L61.3333 64.6666H55.0364C53.7646 64.6666 52.7417 63.9791 51.9701 62.6166L43.1047 44.2393C42.6468 43.4193 42.149 42.8368 41.6114 42.4843C41.0763 42.1343 40.3943 41.9268 39.5829 41.8743V51.1992H34.6325V41.8343H30.9938V64.6666H24V14.6669H30.9938V36.5118H34.6325V25.7069H39.5829V36.4318H39.5804Z" fill="white"/>
</svg>
