<svg width="80" height="80" viewBox="0 0 80 80" fill="none" xmlns="http://www.w3.org/2000/svg">
<circle cx="40" cy="40" r="40" fill="#0E0E21"/>
<path d="M62.4901 49.0331L57.7592 40.9776C57.5932 40.6454 57.1782 40.5623 56.9292 40.8115L53.8583 42.8046C53.6093 42.9707 53.5263 43.3859 53.6923 43.6351L56.4312 48.2026C56.5142 48.3687 56.4312 48.5348 56.3482 48.6179L40.4126 58.9156C40.3296 58.9987 40.1636 58.9987 40.0806 58.9156L24.311 48.6179C24.1451 48.5348 24.1451 48.3687 24.228 48.2026L26.967 43.6351C27.133 43.3859 27.05 42.9707 26.801 42.8046L23.7301 40.8115C23.3981 40.6454 23.0661 40.7284 22.9001 40.9776L18.1692 49.0331C17.8372 49.6144 18.0032 50.3618 18.5842 50.694L39.7486 64.4798C40.1636 64.7289 40.6616 64.7289 41.0766 64.4798L62.2411 50.694C62.6561 50.2788 62.8221 49.5314 62.4901 49.0331Z" fill="white"/>
<path d="M25.5851 36.5119L28.6499 38.5206C28.9812 38.688 29.3126 38.6043 29.4782 38.3532L39.4181 21.2788C39.5009 21.1114 39.8323 21.1114 39.9151 21.2788L49.855 38.3532C50.0206 38.688 50.4348 38.7717 50.6833 38.5206L53.7481 36.5119C53.9966 36.3445 54.0794 35.926 53.9137 35.6749L42.2344 15.2525C41.9859 14.834 41.6546 14.6666 41.1576 14.6666H38.3413C37.9271 14.6666 37.5129 14.9177 37.2645 15.2525L25.4194 35.6749C25.2538 35.926 25.3366 36.3445 25.5851 36.5119Z" fill="#2AE7A8"/>
</svg>
