<svg width="80" height="80" viewBox="0 0 80 80" fill="none" xmlns="http://www.w3.org/2000/svg">
<circle cx="40" cy="40" r="40" fill="#199248"/>
<path fill-rule="evenodd" clip-rule="evenodd" d="M10 40C10 23.4325 23.4325 10 40 10C56.5685 10 70 23.4315 70 40C70 56.5675 56.5675 70 40 70C23.4325 70 10 56.5675 10 40ZM20.7671 58.1706C27.442 65.2464 37.458 68.0948 46.8573 65.5901C60.5507 61.9088 68.9177 48.0983 65.8405 34.2567C62.7633 20.4151 49.3331 11.4504 35.3698 13.9176C25.7946 15.6312 17.9288 22.4549 14.8806 31.6923C11.8324 40.9297 14.0923 51.0947 20.7671 58.1706Z" fill="white"/>
<path fill-rule="evenodd" clip-rule="evenodd" d="M47.3751 22.0926C47.3251 20.8001 47.3251 19.5101 47.3251 18.2176H47.3276L47.3326 18.2351C56.6906 21.3813 62.9969 30.1488 63.0031 40.0215C63.0093 49.8942 56.7141 58.6696 47.3601 61.8276C47.3203 60.5613 47.3203 59.294 47.3601 58.0276C45.6317 58.6747 43.8377 59.1307 42.0101 59.3876C42.013 60.5441 42.0463 61.7004 42.1101 62.8551C40.7101 63.0551 39.2901 63.0551 37.8901 62.8551C37.9601 61.6951 37.9601 60.5226 37.9601 59.3501C36.1336 59.1099 34.3431 58.649 32.6276 57.9776C32.6526 59.2526 32.6651 60.5276 32.6651 61.8076C23.3072 58.6567 17.0046 49.8843 17.0046 40.0101C17.0046 30.136 23.3072 21.3636 32.6651 18.2126C32.6826 19.5201 32.6701 20.8226 32.6326 22.1276C34.3612 21.4488 36.1609 20.9674 37.9976 20.6926C37.9576 19.4826 37.9326 18.2726 37.9976 17.0676C39.3074 17.006 40.6197 17.0219 41.9276 17.1151C42.1411 17.8086 42.0913 18.57 42.0417 19.3293C42.0118 19.788 41.9818 20.246 42.0101 20.6876C43.8461 20.9503 45.646 21.4217 47.3751 22.0926ZM39.5002 56.3827C43.4402 56.4402 47.7302 55.7927 50.7502 53.0552L50.7477 53.0527C54.5027 49.6427 54.0627 42.8127 49.8452 39.9527C47.6509 38.2341 44.9849 37.7325 42.3141 37.2299C40.5636 36.9006 38.811 36.5708 37.1877 35.8977C35.3127 35.2327 34.9277 32.5752 36.4277 31.3277C39.0627 29.1202 44.3652 30.0202 44.9927 33.8077C46.5714 33.5413 48.1491 33.2661 49.7271 32.9908C50.533 32.8502 51.3389 32.7097 52.1452 32.5702C50.8152 28.9327 48.0527 25.6477 44.1777 24.6677C39.8927 23.6277 34.9527 23.9502 31.2577 26.5427C26.4252 29.9027 26.7902 38.1577 31.7277 41.2702C33.6828 42.6227 35.977 43.0398 38.2741 43.4575C40.1891 43.8056 42.106 44.1541 43.8302 45.0452C45.4477 45.8552 45.4102 48.2227 44.1052 49.3052C42.2652 50.8802 39.5302 50.7827 37.3227 50.0927C35.8708 49.6152 34.7855 48.3973 34.4777 46.9002C33.437 47.1227 32.3853 47.2884 31.3333 47.4542C29.9266 47.6759 28.5195 47.8976 27.1377 48.2552C27.8102 49.9527 28.5602 51.6627 29.8852 52.9427C32.3827 55.4452 36.0427 56.3827 39.5002 56.3827Z" fill="white"/>
</svg>
