<svg width="24" height="28" viewBox="0 0 24 28" fill="none" xmlns="http://www.w3.org/2000/svg">
<path d="M20.4373 9.725V9.6875C20.4373 7.43285 19.5608 5.31416 17.967 3.72028C16.3733 2.12641 14.2546 1.25 11.9998 1.25C7.3451 1.25 3.56246 5.03264 3.56246 9.68738V9.72488C1.97341 9.95456 0.75 11.3186 0.75 12.9684V16.7184C0.75 18.5277 2.22184 19.9997 4.03135 19.9997H4.96884C5.74226 19.9997 6.37507 19.3669 6.37507 18.5935V11.0936C6.37507 10.3202 5.74226 9.68738 4.96884 9.68738H4.50009C4.50009 5.55314 7.86575 2.18749 12 2.18749C14.0015 2.18749 15.8858 2.96562 17.3015 4.38588C18.7172 5.80615 19.4999 7.68584 19.4999 9.68741H19.0312C18.2577 9.68741 17.6249 10.3202 17.6249 11.0936V18.5935C17.6249 19.3669 18.2577 19.9998 19.0312 19.9998H19.4999V21.8747C19.4999 23.1685 18.4499 24.2184 17.1562 24.2184H14.7469C14.5359 23.4122 13.8094 22.8122 12.9375 22.8122H11.0626C10.0266 22.8122 9.18759 23.6513 9.18759 24.6872C9.18759 25.7231 10.0266 26.5622 11.0626 26.5622H12.9375C13.8094 26.5622 14.5359 25.9622 14.7469 25.1559H17.1562C18.9655 25.1559 20.4375 23.6841 20.4375 21.8746V19.9621C22.0266 19.7324 23.25 18.3684 23.25 16.7186V12.9686C23.25 11.3186 22.0264 9.95449 20.4373 9.725ZM4.96896 10.625C5.22677 10.625 5.4377 10.8359 5.4377 11.0937V18.5936C5.4377 18.8514 5.22677 19.0624 4.96896 19.0624H4.03147C2.73774 19.0624 1.68776 18.0124 1.68776 16.7186V12.9687C1.68776 11.675 2.73774 10.625 4.03147 10.625H4.96896ZM12.9374 25.6248H11.0625C10.5468 25.6248 10.125 25.2029 10.125 24.6873C10.125 24.1716 10.5468 23.7498 11.0625 23.7498H12.9374C13.4531 23.7498 13.8749 24.1716 13.8749 24.6873C13.8749 25.2029 13.4531 25.6248 12.9374 25.6248ZM22.3123 16.7185C22.3123 18.0122 21.2623 19.0622 19.9686 19.0622H19.0311C18.7733 19.0622 18.5624 18.8513 18.5624 18.5935V11.0936C18.5624 10.8358 18.7733 10.6248 19.0311 10.6248H19.9686C21.2623 10.6248 22.3123 11.6748 22.3123 12.9685V16.7185Z" fill="#145EF0" stroke="#145EF0"/>
</svg>
