<svg width="80" height="80" viewBox="0 0 80 80" fill="none" xmlns="http://www.w3.org/2000/svg">
<circle cx="40" cy="40" r="40" fill="#EDF0F4"/>
<path d="M21.5735 34.5819L16.6667 39.4877H26.4794L21.5735 34.5819Z" fill="#A02870"/>
<path d="M26.4782 40.5123H16.6685L21.5731 45.4177L26.4782 40.5123Z" fill="#80286C"/>
<path d="M33.1334 33.8573L28.2271 28.9513V38.7627L33.1334 33.8573Z" fill="#C42C79"/>
<path d="M27.2031 38.7627V28.9513L22.2971 33.8573L27.2031 38.7627Z" fill="#A02870"/>
<path d="M33.8589 33.1325L38.7645 28.2274H28.9521L33.8589 33.1325Z" fill="#C42C79"/>
<path d="M33.8587 22.2969L28.9514 27.2032H38.7637L33.8587 22.2969Z" fill="#E4327F"/>
<path d="M45.4179 21.5726L40.5125 16.6666V26.478L45.4179 21.5726Z" fill="#0A8B4B"/>
<path d="M39.4878 26.4784V16.6666L34.582 21.5726L39.4878 26.4784Z" fill="#E4327F"/>
<path d="M33.1334 46.1412L28.2271 41.2362V51.0476L33.1334 46.1412Z" fill="#632A69"/>
<path d="M22.2976 46.1412L27.2034 51.0467V41.2362L22.2976 46.1412Z" fill="#80286C"/>
<path d="M46.1424 33.1325L51.0482 28.2274H41.2368L46.1424 33.1325Z" fill="#167B55"/>
<path d="M41.2363 27.2028H51.0481L46.1423 22.2969L41.2363 27.2028Z" fill="#0A8B4B"/>
<path d="M38.7641 52.7957H28.9514L33.8574 57.702L38.7641 52.7957Z" fill="#402863"/>
<path d="M33.8587 46.8665L28.9524 51.7715H38.7628L33.8587 46.8665Z" fill="#632A69"/>
<path d="M57.7024 33.8574L52.7966 28.952V38.7625L57.7024 33.8574Z" fill="#21695E"/>
<path d="M46.8667 33.8573L51.7731 38.7632V28.9513L46.8667 33.8573Z" fill="#167B55"/>
<path d="M34.5823 58.4267L39.4877 63.3321V53.5208L34.5823 58.4267Z" fill="#402863"/>
<path fill-rule="evenodd" clip-rule="evenodd" d="M51.0486 52.796L46.1422 57.7024L41.2359 52.796H51.0486ZM40.5125 63.3317V53.5211L45.4182 58.4267L40.5125 63.3317Z" fill="#223160"/>
<path d="M46.1423 46.8665L41.2373 51.7715H51.0472L46.1423 46.8665Z" fill="#1E4561"/>
<path d="M52.7971 41.2362V51.047L57.7025 46.1412L52.7971 41.2362Z" fill="#245661"/>
<path d="M46.8667 46.1413L51.7731 51.0472V41.2358L46.8667 46.1413Z" fill="#1E4561"/>
<path d="M58.4271 45.4178L63.3335 40.5118H53.5217L58.4271 45.4178Z" fill="#245661"/>
<path d="M58.4272 34.5819L53.5205 39.4877H63.3336L58.4272 34.5819Z" fill="#21695E"/>
</svg>
