<svg width="32" height="32" viewBox="0 0 32 32" fill="none" xmlns="http://www.w3.org/2000/svg">
<path d="M2.66663 11.3333H17.3333" stroke="#145EF0" stroke-width="2" stroke-miterlimit="10" stroke-linecap="round" stroke-linejoin="round"/>
<path d="M8 22H10.6667" stroke="#145EF0" stroke-width="2" stroke-miterlimit="10" stroke-linecap="round" stroke-linejoin="round"/>
<path d="M14 22H19.3333" stroke="#145EF0" stroke-width="2" stroke-miterlimit="10" stroke-linecap="round" stroke-linejoin="round"/>
<path d="M29.3333 15.1067V21.48C29.3333 26.16 28.1466 27.3334 23.4133 27.3334H8.58663C3.85329 27.3334 2.66663 26.16 2.66663 21.48V10.52C2.66663 5.84004 3.85329 4.66669 8.58663 4.66669H17.7066" stroke="#145EF0" stroke-width="2" stroke-linecap="round" stroke-linejoin="round"/>
<path d="M22.6667 4.33337H26.8401C27.7601 4.33337 28.5067 5.17337 28.5067 6.00004C28.5067 6.92004 27.7601 7.66671 26.8401 7.66671H22.6667V4.33337Z" stroke="#145EF0" stroke-width="1.5" stroke-miterlimit="10" stroke-linecap="round" stroke-linejoin="round"/>
<path d="M22.6667 7.66669H27.4267C28.4801 7.66669 29.3334 8.41335 29.3334 9.33335C29.3334 10.2534 28.4801 11 27.4267 11H22.6667V7.66669Z" stroke="#145EF0" stroke-width="1.5" stroke-miterlimit="10" stroke-linecap="round" stroke-linejoin="round"/>
<path d="M25.0134 11V12.6667" stroke="#145EF0" stroke-width="1.5" stroke-miterlimit="10" stroke-linecap="round" stroke-linejoin="round"/>
<path d="M25.0134 2.66669V4.33335" stroke="#145EF0" stroke-width="1.5" stroke-miterlimit="10" stroke-linecap="round" stroke-linejoin="round"/>
<path d="M24.2534 4.33337H21.3334" stroke="#145EF0" stroke-width="1.5" stroke-miterlimit="10" stroke-linecap="round" stroke-linejoin="round"/>
<path d="M24.2534 11H21.3334" stroke="#145EF0" stroke-width="1.5" stroke-miterlimit="10" stroke-linecap="round" stroke-linejoin="round"/>
</svg>
