<svg width="80" height="80" viewBox="0 0 80 80" fill="none" xmlns="http://www.w3.org/2000/svg">
<circle cx="40" cy="40" r="40" fill="#FAA00D"/>
<path fill-rule="evenodd" clip-rule="evenodd" d="M65.3133 36.2973L41.6408 64.0262L40.5783 65.3333L15.3508 36.5769L15.4308 36.5441L15.3333 36.529L25.1383 20.0151L25.1433 20.0201L25.1383 20H55.7733L55.7683 20.0176L65.3333 36.2948L65.3133 36.2973ZM32.4734 37.4532L27.0484 46.7063L40.4284 62.0994L53.8359 46.5803L48.5309 37.4255L32.4734 37.4532ZM29.9282 37.4559L25.5282 44.9586L19.0232 37.4736L29.9282 37.4559ZM49.8357 35.2723L62.2207 35.2521L54.4457 22.1357L42.2407 22.1609L49.8357 35.2723ZM51.0808 37.4206L61.7633 37.4029L55.3633 44.8124L51.0808 37.4206ZM47.2859 35.2774L40.5584 23.662L33.7334 35.2976L47.2859 35.2774ZM18.5382 35.3252L26.2882 22.1962L38.8882 22.171L31.1882 35.3026L18.5382 35.3252Z" fill="white"/>
</svg>
