<svg width="180" height="63" viewBox="0 0 180 63" fill="none" xmlns="http://www.w3.org/2000/svg">
<path d="M28.5665 62.4844H7.41346C3.13044 62.4844 0.0185384 59.416 0.0121459 55.1304C-0.00404863 44.5614 -0.00404863 33.9953 0.0121459 23.4323C0.0121459 20.9251 1.01578 18.9012 3.03199 17.3887C10.1175 12.0769 17.2039 6.76428 24.2911 1.45079C25.5223 0.512751 27.0265 0.00324726 28.5743 1.54697e-05C30.1221 -0.00321632 31.6285 0.500001 32.8635 1.43289C40.0232 6.7873 47.1774 12.1571 54.326 17.5421C56.1453 18.9153 57.1323 20.7998 57.1387 23.096C57.1583 33.8969 57.1583 44.6973 57.1387 55.4974C57.1272 59.4147 53.9424 62.4806 49.979 62.4895C42.8415 62.4981 35.704 62.4964 28.5665 62.4844ZM42.8922 46.4544C42.8922 47.6677 42.8986 48.8133 42.8922 49.9601C42.8922 50.6096 43.139 51.1261 43.6785 51.4764C43.9436 51.6605 44.2554 51.7657 44.5778 51.78C44.9002 51.7942 45.2201 51.7169 45.5004 51.557C46.1703 51.2028 46.4247 50.6071 46.4235 49.8604C46.4158 45.8331 46.4158 41.8058 46.4235 37.7785C46.4235 33.452 43.3627 30.3771 39.026 30.3631C35.6596 30.3529 32.2933 30.3631 28.9257 30.3631C27.4797 30.3631 26.8149 31.0292 26.8136 32.4701C26.8136 35.6868 26.8136 38.904 26.8136 42.1216V42.8311H14.2957V42.0474C14.2957 37.5948 14.2957 33.1417 14.2957 28.6882C14.2957 27.9211 13.994 27.3215 13.2882 26.9763C13.0026 26.8264 12.6798 26.7621 12.3585 26.7908C12.0372 26.8196 11.731 26.9404 11.4766 27.1387C10.8872 27.5619 10.7223 28.1807 10.7235 28.88C10.7303 34.8038 10.7303 40.7276 10.7235 46.6513C10.7235 47.6959 10.7107 48.7404 10.7325 49.7837C10.7326 50.1017 10.7902 50.417 10.9025 50.7145C11.0565 51.0815 11.3328 51.3839 11.6845 51.5704C12.0362 51.7568 12.4416 51.8158 12.8318 51.7373C13.2377 51.6771 13.6081 51.4723 13.8748 51.1605C14.1415 50.8487 14.2864 50.451 14.2829 50.0407C14.3059 48.8555 14.2829 47.6677 14.2829 46.4532L42.8922 46.4544ZM20.554 32.1504C19.673 32.1504 18.8117 32.4115 18.0789 32.9006C17.3461 33.3898 16.7747 34.0851 16.4368 34.8987C16.0989 35.7124 16.0097 36.6079 16.1803 37.4723C16.351 38.3366 16.774 39.131 17.3958 39.7551C18.0176 40.3793 18.8104 40.8052 19.6741 40.9791C20.5378 41.153 21.4337 41.0671 22.2486 40.7322C23.0635 40.3973 23.7609 39.8285 24.2528 39.0975C24.7447 38.3666 25.0089 37.5063 25.0122 36.6252C25.0122 35.4413 24.543 34.3056 23.7074 33.4669C22.8718 32.6282 21.7379 32.1548 20.554 32.1504Z" fill="white"/>
<mask id="mask0_873_6332" style="mask-type:alpha" maskUnits="userSpaceOnUse" x="0" y="0" width="58" height="63">
<path d="M28.5665 62.4844H7.41346C3.13044 62.4844 0.0185384 59.416 0.0121459 55.1304C-0.00404863 44.5614 -0.00404863 33.9953 0.0121459 23.4323C0.0121459 20.9251 1.01578 18.9012 3.03199 17.3887C10.1175 12.0769 17.2039 6.76428 24.2911 1.45079C25.5223 0.512751 27.0265 0.00324726 28.5743 1.54697e-05C30.1221 -0.00321632 31.6285 0.500001 32.8635 1.43289C40.0232 6.7873 47.1774 12.1571 54.326 17.5421C56.1453 18.9153 57.1323 20.7998 57.1387 23.096C57.1583 33.8969 57.1583 44.6973 57.1387 55.4974C57.1272 59.4147 53.9424 62.4806 49.979 62.4895C42.8415 62.4981 35.704 62.4964 28.5665 62.4844ZM42.8922 46.4544C42.8922 47.6677 42.8986 48.8133 42.8922 49.9601C42.8922 50.6096 43.139 51.1261 43.6785 51.4764C43.9436 51.6605 44.2554 51.7657 44.5778 51.78C44.9002 51.7942 45.2201 51.7169 45.5004 51.557C46.1703 51.2028 46.4247 50.6071 46.4235 49.8604C46.4158 45.8331 46.4158 41.8058 46.4235 37.7785C46.4235 33.452 43.3627 30.3771 39.026 30.3631C35.6596 30.3529 32.2933 30.3631 28.9257 30.3631C27.4797 30.3631 26.8149 31.0292 26.8136 32.4701C26.8136 35.6868 26.8136 38.904 26.8136 42.1216V42.8311H14.2957V42.0474C14.2957 37.5948 14.2957 33.1417 14.2957 28.6882C14.2957 27.9211 13.994 27.3215 13.2882 26.9763C13.0026 26.8264 12.6798 26.7621 12.3585 26.7908C12.0372 26.8196 11.731 26.9404 11.4766 27.1387C10.8872 27.5619 10.7223 28.1807 10.7235 28.88C10.7303 34.8038 10.7303 40.7276 10.7235 46.6513C10.7235 47.6959 10.7107 48.7404 10.7325 49.7837C10.7326 50.1017 10.7902 50.417 10.9025 50.7145C11.0565 51.0815 11.3328 51.3839 11.6845 51.5704C12.0362 51.7568 12.4416 51.8158 12.8318 51.7373C13.2377 51.6771 13.6081 51.4723 13.8748 51.1605C14.1415 50.8487 14.2864 50.451 14.2829 50.0407C14.3059 48.8555 14.2829 47.6677 14.2829 46.4532L42.8922 46.4544ZM20.554 32.1504C19.673 32.1504 18.8117 32.4115 18.0789 32.9006C17.3461 33.3898 16.7747 34.0851 16.4368 34.8987C16.0989 35.7124 16.0097 36.6079 16.1803 37.4723C16.351 38.3366 16.774 39.131 17.3958 39.7551C18.0176 40.3793 18.8104 40.8052 19.6741 40.9791C20.5378 41.153 21.4337 41.0671 22.2486 40.7322C23.0635 40.3973 23.7609 39.8285 24.2528 39.0975C24.7447 38.3666 25.0089 37.5063 25.0122 36.6252C25.0122 35.4413 24.543 34.3056 23.7074 33.4669C22.8718 32.6282 21.7379 32.1548 20.554 32.1504Z" fill="url(#paint0_linear_873_6332)"/>
</mask>
<g mask="url(#mask0_873_6332)">
<path d="M-20.7105 -22.0269L-38.4189 12.8436L85.0341 97.8403L-20.7105 -22.0269Z" fill="white"/>
<path d="M68.2442 -30.5454L27.0796 -32.1257L-4.02595 120.04L68.2442 -30.5454Z" fill="white"/>
</g>
<path d="M170.103 55.9094C165.829 55.9094 163.362 53.3563 163.362 49.3115C163.362 45.2955 165.973 42.7137 170.275 42.7137C173.201 42.7137 175.296 43.9759 175.754 46.4716H175.984V43.0006H180V55.2783C180 60.2984 176.959 62.5359 171.824 62.5359C167.177 62.5359 164.251 60.4705 164.251 56.856H168.554C168.554 58.4624 169.185 58.9501 172.111 58.9501C174.865 58.9501 175.697 58.3764 175.697 55.5651V52.3236H175.468C175.009 54.4464 173.316 55.9094 170.103 55.9094ZM167.694 49.3115C167.694 51.4343 168.898 52.2088 171.595 52.2088C174.349 52.2088 175.697 51.4343 175.697 49.455V49.1394C175.697 47.1888 174.32 46.4429 171.652 46.4429C168.898 46.4429 167.694 47.1888 167.694 49.3115Z" fill="white"/>
<path d="M150.6 57.3724H146.297V43.0006H150.284V47.4183H150.543C150.916 45.0086 152.637 42.7137 156.395 42.7137C160.325 42.7137 162.189 45.2381 162.189 48.4223V57.3724H157.886V49.8566C157.886 47.5617 156.94 46.5864 154.301 46.5864C151.575 46.5864 150.6 47.6764 150.6 50.1148V57.3724Z" fill="white"/>
<path d="M144.619 41.5376H140.316V38.1526H144.619V41.5376ZM144.619 57.3723H140.316V43.0006H144.619V57.3723Z" fill="white"/>
<path d="M127.796 57.3723H123.493V38.1526H127.796V48.3362H131.066L134.738 43.0006H139.844L134.594 49.9426L139.758 57.3723H134.68L131.095 52.1802H127.796V57.3723Z" fill="white"/>
<path d="M114.105 57.6592C109.2 57.6592 105.901 54.7332 105.901 50.2008C105.901 45.611 109.2 42.7137 114.105 42.7137C119.01 42.7137 122.309 45.611 122.309 50.2008C122.309 54.7332 119.01 57.6592 114.105 57.6592ZM114.105 53.844C117.002 53.844 118.035 52.7252 118.035 50.2008C118.035 47.6764 117.002 46.5003 114.105 46.5003C111.179 46.5003 110.175 47.6764 110.175 50.2008C110.175 52.7252 111.179 53.844 114.105 53.844Z" fill="white"/>
<path d="M97.058 57.6592C92.1527 57.6592 88.8538 54.7332 88.8538 50.2008C88.8538 45.611 92.1527 42.7137 97.058 42.7137C101.963 42.7137 105.262 45.611 105.262 50.2008C105.262 54.7332 101.963 57.6592 97.058 57.6592ZM97.058 53.844C99.9553 53.844 100.988 52.7252 100.988 50.2008C100.988 47.6764 99.9553 46.5003 97.058 46.5003C94.132 46.5003 93.128 47.6764 93.128 50.2008C93.128 52.7252 94.132 53.844 97.058 53.844Z" fill="white"/>
<path d="M82.0735 57.3723H69.9966V38.1526H81.5284C85.4584 38.1526 87.5812 39.8164 87.5812 42.8285C87.5812 45.2094 86.319 46.9306 83.1062 47.1601V47.4182C86.6633 47.6764 88.3844 49.455 88.3844 52.0367C88.3844 55.3069 86.3764 57.3723 82.0735 57.3723ZM74.2995 42.0252V45.7831H81.0408C82.6185 45.7831 83.2783 45.2381 83.2783 43.9185C83.2783 42.599 82.5898 42.0252 80.9834 42.0252H74.2995ZM74.2995 49.3402V53.4997H81.5571C83.307 53.4997 84.0241 52.9547 84.0241 51.4056C84.0241 49.8853 83.307 49.3402 81.5571 49.3402H74.2995Z" fill="white"/>
<path d="M149.151 28.973C144.36 28.973 141.09 26.6208 141.09 21.5146C141.09 16.9249 144.331 14.0275 149.065 14.0275C153.769 14.0275 156.896 16.4946 156.896 20.9983C156.896 21.5146 156.839 21.8876 156.781 22.3752H145.077C145.192 24.5841 146.225 25.5307 149.007 25.5307C151.56 25.5307 152.45 24.8709 152.45 23.6374V23.3506H156.753V23.6661C156.753 26.7929 153.712 28.973 149.151 28.973ZM148.979 17.3838C146.425 17.3838 145.335 18.2444 145.135 20.109H152.765C152.65 18.2157 151.503 17.3838 148.979 17.3838Z" fill="white"/>
<path d="M132.524 28.973C127.733 28.973 124.463 26.6208 124.463 21.5146C124.463 16.9249 127.705 14.0275 132.438 14.0275C137.142 14.0275 140.269 16.4946 140.269 20.9983C140.269 21.5146 140.212 21.8876 140.154 22.3752H128.451C128.565 24.5841 129.598 25.5307 132.381 25.5307C134.934 25.5307 135.823 24.8709 135.823 23.6374V23.3506H140.126V23.6661C140.126 26.7929 137.085 28.973 132.524 28.973ZM132.352 17.3838C129.799 17.3838 128.709 18.2444 128.508 20.109H136.138C136.024 18.2157 134.876 17.3838 132.352 17.3838Z" fill="white"/>
<path d="M111.673 28.6862H107.37V9.46646H123.635V13.3391H111.673V17.6707H123.205V21.5147H111.673V28.6862Z" fill="white"/>
<path d="M97.9826 28.973C93.0772 28.973 89.7783 26.0471 89.7783 21.5146C89.7783 16.9249 93.0772 14.0275 97.9826 14.0275C102.888 14.0275 106.187 16.9249 106.187 21.5146C106.187 26.0471 102.888 28.973 97.9826 28.973ZM97.9826 25.1578C100.88 25.1578 101.913 24.039 101.913 21.5146C101.913 18.9903 100.88 17.8141 97.9826 17.8141C95.0566 17.8141 94.0526 18.9903 94.0526 21.5146C94.0526 24.039 95.0566 25.1578 97.9826 25.1578Z" fill="white"/>
<path d="M74.3854 28.6862H70.0825V9.46646H74.6723L81.557 18.56L84.1961 22.6047H84.5117L84.3109 18.7321V9.46646H88.6138V28.6862H84.024L76.9385 19.5066L74.5002 15.8922H74.2133L74.3854 19.4206V28.6862Z" fill="white"/>
<defs>
<linearGradient id="paint0_linear_873_6332" x1="28.5767" y1="0" x2="28.5767" y2="62.4949" gradientUnits="userSpaceOnUse">
<stop stop-color="#2CA8FC"/>
<stop offset="1" stop-color="#516EFA"/>
</linearGradient>
</defs>
</svg>
