<svg width="501" height="421" viewBox="0 0 501 421" fill="none" xmlns="http://www.w3.org/2000/svg">
<g clip-path="url(#clip0_325_3773)">
<path d="M227.621 341.454C227.621 341.454 234.939 291.979 279.278 284.371C323.616 276.767 318.253 214.127 378.833 216.617C439.414 219.112 426.93 277.39 451.037 290.477C475.143 303.568 486.335 341.454 486.335 341.454H227.621Z" fill="#51A2FF"/>
<path d="M235.193 341.454C235.193 341.454 235.193 301.337 187.649 287.209C140.104 273.082 151.424 199.498 91.9917 210.818C32.5607 222.138 61.4277 297.418 38.2217 313.832C15.0157 330.246 20.1087 341.453 20.1087 341.453H235.193V341.454Z" fill="#51A2FF"/>
<path d="M468.094 341.673L466.298 341.705L498.878 224.922C509.044 229.005 468.094 341.673 468.094 341.673ZM456.29 341.879L425.233 253.086C433.281 252.694 443.69 287.41 448.537 305.416C450.168 311.914 451.246 315.948 451.246 315.948C451.246 315.948 450.23 311.703 448.537 305.416C442.015 279.404 426.624 213.742 435.828 207.512L460.07 341.814L456.29 341.879ZM463.915 341.746L466.683 183.113C477.9 190.705 468.094 320.849 468.094 320.849C468.094 320.849 487.171 227.346 497.822 224.847L465.215 341.722L463.915 341.746Z" fill="#D3D3D3"/>
<path d="M448.536 305.416C450.23 311.702 451.245 315.948 451.245 315.948C451.245 315.948 450.168 311.914 448.536 305.416Z" fill="#9DADEC"/>
<path d="M461.124 341.796L436.814 207.116C449.53 204.905 461.158 320.849 461.158 320.849C461.158 320.849 452.733 182.758 465.617 182.758C465.628 182.758 465.638 182.762 465.65 182.762L462.875 341.765L461.124 341.796ZM451.742 341.956C451.742 341.956 413.089 259.319 423.991 253.43C424.066 253.39 424.142 253.367 424.217 253.333L455.194 341.899L451.742 341.956Z" fill="#D3D3D3"/>
<path d="M465.214 341.721L497.821 224.846C498.162 224.763 498.494 224.776 498.817 224.889C498.839 224.895 498.856 224.915 498.878 224.921L466.298 341.704L465.214 341.721ZM462.875 341.764L465.65 182.761C466.013 182.768 466.357 182.891 466.684 183.112L463.916 341.745L462.875 341.764ZM460.07 341.815L435.828 207.513C436.003 207.396 436.186 207.297 436.38 207.221C436.525 207.167 436.669 207.145 436.814 207.117L461.124 341.797L460.07 341.815ZM455.194 341.899L424.217 253.333C424.551 253.184 424.89 253.103 425.233 253.087L456.29 341.88L455.194 341.899Z" fill="#CCE9FF"/>
<path d="M45.3636 341.796L21.0546 207.116C33.7706 204.907 45.3986 320.849 45.3986 320.849C45.3986 320.849 36.9746 182.758 49.8586 182.758C49.8696 182.758 49.8796 182.762 49.8906 182.762L47.1176 341.765L45.3636 341.796ZM40.5296 341.879L9.47461 253.086C17.5206 252.692 27.9296 287.41 32.7796 305.416C34.4096 311.914 35.4866 315.948 35.4866 315.948C35.4866 315.948 34.4716 311.703 32.7796 305.416C26.2566 279.404 10.8656 213.739 20.0706 207.512L44.3126 341.814L40.5296 341.879Z" fill="#D3D3D3"/>
<path d="M32.7803 305.416C34.4733 311.702 35.4873 315.948 35.4873 315.948C35.4873 315.948 34.4103 311.914 32.7803 305.416Z" fill="#9DADEC"/>
<path d="M35.9829 341.956C35.9829 341.956 -2.66815 259.319 8.23385 253.43C8.30885 253.39 8.38385 253.367 8.45885 253.331L39.4379 341.899L35.9829 341.956ZM52.3358 341.673L50.5399 341.705L83.1199 224.922C93.2849 229.005 52.3358 341.673 52.3358 341.673ZM48.1579 341.746L50.9268 183.113C62.1428 190.705 52.3369 320.849 52.3369 320.849C52.3369 320.849 71.4129 227.346 82.0639 224.847L49.4569 341.721L48.1579 341.746Z" fill="#D3D3D3"/>
<path d="M49.457 341.721L82.064 224.846C82.405 224.763 82.737 224.776 83.059 224.889C83.081 224.895 83.099 224.915 83.121 224.921L50.541 341.704L49.457 341.721ZM47.117 341.764L49.89 182.761C50.254 182.768 50.598 182.891 50.926 183.112L48.157 341.745L47.117 341.764ZM44.312 341.815L20.071 207.512C20.2438 207.395 20.4289 207.297 20.623 207.22C20.7634 207.172 20.908 207.137 21.055 207.116L45.364 341.796L44.312 341.815ZM39.438 341.899L8.45898 253.331C8.77939 253.187 9.12399 253.104 9.47498 253.086L40.53 341.879L39.438 341.899Z" fill="#CCE9FF"/>
<path d="M429.722 234.977L404.6 340.811L402.596 340.794L396.434 309.739C396.121 297.198 398.194 260.884 429.722 234.977ZM430.143 341.032L419.026 340.938L465.108 288.964C453.566 330.01 430.143 341.032 430.143 341.032ZM464.853 287.687L417.647 340.926L414.714 340.897L429.308 311.014C434.779 302.604 446.392 289.026 464.853 287.687ZM429.08 309.111L413.562 340.889L405.665 340.82L430.603 235.768C442.132 264.648 434.247 294.8 429.08 309.111ZM384.156 340.634C384.156 340.634 348.692 326.921 348.064 272.865L394.956 340.728L384.156 340.634ZM395.546 310.605L401.534 340.784L396.228 340.74L348.447 271.588C382.209 285.713 392.553 303.188 395.546 310.605Z" fill="#0B4870"/>
<path d="M465.49 287.631C465.368 288.086 465.235 288.517 465.108 288.964L419.026 340.938L417.647 340.926L464.853 287.687C465.067 287.672 465.274 287.644 465.49 287.631ZM430.143 234.627C430.303 235.006 430.451 235.388 430.602 235.768L405.665 340.82L404.599 340.811L429.721 234.977C429.865 234.863 430.001 234.744 430.143 234.627ZM348.446 271.587L396.227 340.739L394.955 340.726L348.063 272.863C348.057 272.382 348.049 271.904 348.049 271.413C348.185 271.471 348.311 271.532 348.446 271.587Z" fill="#2A94F4"/>
<path d="M425.931 316.894C425.709 317.373 425.583 317.628 425.583 317.628C425.583 317.628 425.699 317.366 425.931 316.894Z" fill="#577BC2"/>
<path d="M425.931 316.894C425.699 317.366 425.583 317.628 425.583 317.628C425.583 317.628 425.709 317.374 425.931 316.894C426.454 315.829 427.57 313.685 429.308 311.014L414.714 340.897L413.562 340.888L429.08 309.11C427.689 312.965 426.494 315.673 425.931 316.894ZM396.698 314.209C396.698 314.209 396.505 312.583 396.434 309.739L402.596 340.794L401.534 340.784L395.546 310.605C396.461 312.869 396.698 314.209 396.698 314.209Z" fill="#577BC2"/>
<path d="M91.7748 318.088L86.2458 342.443H83.5058L67.4278 233.157C95.6088 261.552 94.2388 300.384 91.7748 318.088ZM129.764 268.077L88.6018 342.443H87.3098L93.4098 315.576C98.2398 301.63 108.912 279.129 129.764 268.077ZM95.9468 342.443H89.7888L130.625 268.668C130.207 325.794 95.9468 342.443 95.9468 342.443ZM63.7378 342.443C63.7378 342.443 35.7068 329.368 22.8428 285.829L68.3318 342.443H63.7378ZM63.0948 319.651L71.6078 342.443H69.6638L23.0678 284.451C45.2178 291.371 57.4038 308.736 63.0948 319.651ZM66.5548 234.376L82.4538 342.443H72.7198L64.1938 319.615C59.4958 302.788 52.3558 266.386 66.5548 234.376Z" fill="#0B4870"/>
<path d="M130.635 267.617C130.635 267.97 130.628 268.317 130.626 268.668L89.7903 342.443H88.6023L129.764 268.077C130.052 267.923 130.342 267.767 130.635 267.617ZM67.2063 232.929C67.2823 233.005 67.3523 233.084 67.4283 233.157L83.5063 342.443H82.4543L66.5553 234.376C66.7693 233.895 66.9833 233.412 67.2063 232.929ZM23.0683 284.451L69.6643 342.443H68.3323L22.8433 285.829C22.6833 285.289 22.5163 284.765 22.3613 284.219C22.6013 284.29 22.8313 284.375 23.0683 284.451Z" fill="#2A94F4"/>
<path d="M90.5871 325.01C90.1821 326.643 90.0011 327.576 90.0011 327.576C90.0011 327.576 90.2421 326.67 90.5871 325.01C91.3888 321.825 92.3307 318.678 93.4101 315.576L87.3101 342.443H86.2461L91.7751 318.088C91.3651 321.026 90.9261 323.379 90.5871 325.01Z" fill="#577BC2"/>
<path d="M90.5867 325.01C90.2417 326.67 90.0007 327.576 90.0007 327.576C90.0007 327.576 90.1817 326.643 90.5867 325.01ZM66.5477 327.231C66.9597 328.425 67.2057 329.062 67.2057 329.062C67.2057 329.062 66.9907 328.389 66.5477 327.231C65.6878 324.716 64.9028 322.176 64.1937 319.615L72.7197 342.443H71.6087L63.0957 319.651C64.7937 322.904 65.9127 325.575 66.5477 327.231Z" fill="#577BC2"/>
<path d="M66.5479 327.231C66.9919 328.389 67.2059 329.062 67.2059 329.062C67.2059 329.062 66.9589 328.425 66.5479 327.231Z" fill="#577BC2"/>
<path d="M250.307 311.907C426.114 311.907 500.114 340.934 500.114 340.934C500.114 340.934 426.114 353.133 250.307 353.133C74.499 353.133 0.5 340.934 0.5 340.934C0.5 340.934 74.499 311.907 250.307 311.907Z" fill="#DBEAFE"/>
<path d="M218.061 332.535C218.061 332.535 211.71 336.454 206.841 336.869C201.972 337.284 199.242 337.908 198.886 341.114C198.53 344.319 212.006 343.281 214.321 342.806C216.637 342.331 227.144 343.221 228.57 342.331C229.995 341.441 228.451 332.952 227.857 331.705C227.264 330.457 218.061 332.535 218.061 332.535Z" fill="#0B4870"/>
<path d="M218.349 329.587L218.33 332.52C218.33 332.52 225.163 333.539 227.218 331.714L227.481 328.974L218.349 329.587Z" fill="#D3D3D3"/>
<path d="M251.008 331.628C251.008 331.628 247.12 336.223 243.071 337.277C239.022 338.332 234.509 340.314 234.551 342.886C234.594 345.459 247.879 345.712 252.687 343.393C257.495 341.073 260.279 340.472 260.996 338.517C261.713 336.559 259.868 331.436 259.901 330.819C259.942 330.056 251.008 331.628 251.008 331.628Z" fill="#0B4870"/>
<path d="M250.926 329.409C250.926 329.409 250.984 332.033 251.065 332.074C251.144 332.117 259.244 332.891 259.774 331.265C260.238 329.842 260.179 328.158 260.179 328.158L250.926 329.409Z" fill="#D3D3D3"/>
<path d="M229.69 221.716C229.69 221.716 209.298 256.136 204.988 264.307C200.997 271.88 207.239 288.363 208.2 293.822C209.203 299.526 218.701 327.671 218.132 329.663C217.562 331.655 228.617 328.973 228.617 328.973C228.617 328.973 222.193 279.039 221.529 274.009C220.865 268.979 243.566 237.452 244.896 239.444C246.223 241.436 246.992 276.468 247.656 281.969C248.32 287.474 250.474 329.238 250.474 329.238C250.474 329.238 260.341 330.853 262.523 327.342C262.523 327.342 263.092 283.407 263.188 279.516C263.282 275.624 268.459 237.053 263.663 219.44C261.126 210.136 229.69 221.716 229.69 221.716Z" fill="#0B4870"/>
<path d="M253.656 133.008L244.713 141.431L244.606 141.537L241.212 144.732L239.549 143.109L235.783 139.462L235.344 139.023L236.807 137.413L237.912 136.202L238.231 135.843L239.629 134.3L239.948 133.954L241.279 132.477V132.464L246.27 126.994L246.562 126.673L247.401 127.433L247.787 127.765L253.656 133.008Z" fill="#514E58"/>
<path d="M241.557 143.507L252.324 133.363L246.193 127.877L236.482 138.565L241.557 143.507Z" fill="#3E3B42"/>
<path d="M234.151 144.921C234.151 144.921 236.025 144.472 235.472 142.226C234.92 139.983 235.784 139.468 235.784 139.468L242.311 145.794C242.311 145.794 239.141 148.851 238.179 148.973C237.217 149.093 233.184 146.145 234.151 144.921Z" fill="#F1B99E"/>
<path d="M242.311 145.794C242.311 145.794 246.282 143.252 246.656 142.871C247.031 142.492 248.807 140.794 249.534 139.789C250.261 138.783 247.363 139.031 246.522 140.074C245.682 141.119 244.928 141.414 244.344 141.646C243.761 141.875 240.243 142.083 239.545 143.115C238.849 144.147 242.311 145.794 242.311 145.794ZM237.012 138.107C237.012 138.107 237.486 138.728 237.866 138.008C238.246 137.287 238.215 135.628 237.251 136.027C236.284 136.426 237.012 138.107 237.012 138.107ZM238.235 135.91C238.235 135.91 238.401 137.137 239.001 136.584C239.599 136.032 240.199 133.978 239.157 134.031C238.112 134.082 238.235 135.91 238.235 135.91ZM239.942 134.119C239.942 134.119 239.939 135.599 240.633 135.175C241.155 134.853 241.905 132.189 240.863 132.241C239.82 132.293 239.942 134.119 239.942 134.119ZM295.712 220.086C295.712 220.086 298.029 221.729 299.42 221.429C300.812 221.127 302.768 221.375 303.378 221.485C304.194 221.63 306.986 221.189 306.674 222.171C306.361 223.153 302.081 223.101 301.16 223.259C300.239 223.417 303.087 225.855 303.177 226.727C303.268 227.597 298.049 232.253 296.331 230.344C294.613 228.436 294.282 225.188 293.901 224.916C293.519 224.644 292.585 223.579 292.585 223.579L295.712 220.086Z" fill="#F1B99E"/>
<path d="M302.903 226.178C302.903 226.178 307.697 232.394 307.607 233.1C307.518 233.804 307.106 234.067 306.63 233.509C306.153 232.946 301.793 227.646 301.793 227.646C301.793 227.646 306.01 236.042 306.073 236.619C306.109 236.957 305.338 237.505 305.05 237.23C304.762 236.957 300.035 228.917 300.035 228.917C300.035 228.917 303.957 236.762 303.852 237.277C303.759 237.726 302.935 238.081 302.599 237.522C302.262 236.965 298.149 229.922 298.149 229.922C298.149 229.922 300.593 235.843 300.231 236.261C300.009 236.516 299.364 237.015 298.787 235.465C298.211 233.912 296.417 230.43 296.417 230.43L302.903 226.178Z" fill="#F1B99E"/>
<path d="M299.166 220.878C299.166 220.878 294.359 224.677 292.46 224.169C290.562 223.662 274.745 201.904 273.481 198.105C272.217 194.309 270.823 183.048 270.823 183.048C270.823 183.048 266.74 194.358 266.201 199.8C265.661 205.239 263.439 215.205 263.439 215.205L231.01 217.17C231.01 217.17 229.743 215.186 230.293 210.971C230.84 206.752 232.323 196.694 231.373 191.285C230.425 185.878 231.246 176.575 231.246 176.575C231.246 176.575 217.682 180.644 216.101 181.086C214.518 181.53 210.408 179.062 209.331 176.53C208.257 174.001 234.003 143.507 234.003 143.507L239.937 148.595L232.624 161.103C232.87 160.937 234.41 160.323 236.476 159.533C241.521 157.608 249.694 154.641 249.694 154.641C249.694 154.641 261.208 154.451 262.094 154.58C262.979 154.706 274.367 160.274 276.011 161.665C277.658 163.055 282.211 191.778 283.096 193.676C283.982 195.574 299.166 220.878 299.166 220.878Z" fill="#FFE3CA"/>
<path d="M231.01 217.168C231.01 217.168 230.201 217.995 229.69 221.717C229.69 221.717 260.341 220.583 263.662 219.443C263.662 219.443 264.114 215.329 263.438 215.205C262.696 215.066 231.01 217.168 231.01 217.168Z" fill="#0E538C"/>
<path d="M262.094 154.579C261.777 155.97 251.149 164.13 251.149 164.13C251.149 164.13 248.734 155.031 249.694 154.64C250.07 154.488 250.274 153.776 250.384 152.971C250.487 152.202 250.505 151.348 250.503 150.803C250.503 150.465 250.494 150.246 250.494 150.246C250.494 150.246 251.922 148.961 253.731 147.436C256.892 144.768 261.216 141.377 261.105 142.853C261.097 142.947 261.079 143.041 261.05 143.131C260.077 146.4 262.094 154.579 262.094 154.579Z" fill="#F1B99E"/>
<path d="M249.991 154.359L246.978 155.717L248.302 167.863L251.148 164.131L249.991 154.359ZM261.946 153.951L251.148 164.131L252.543 168.264L265.482 155.986L261.946 153.951Z" fill="#F2F2F2"/>
<path d="M256.441 215.384C256.441 215.384 256.773 219.616 256.744 220.71L258.172 220.541C258.172 220.541 258.136 216.088 257.966 215.328L256.441 215.384ZM233.582 216.882C233.582 216.882 232.748 220.638 232.621 222.072L234.123 221.998C234.123 221.998 234.804 217.278 235.013 216.795L233.582 216.882Z" fill="#0E538C"/>
<path d="M242.764 216.167C242.757 216.13 242.745 214.83 242.886 209.381C242.943 207.167 243.131 201.135 243.907 197.511C245.056 192.155 245.136 189.663 244.722 185.047C244.025 177.295 250.036 167.768 250.064 167.665L250.84 167.865C250.814 167.967 245.133 177.325 245.817 184.935C246.242 189.675 246.089 192.634 244.929 198.047C244.193 201.479 244.084 207.192 244.029 209.333C243.893 214.615 243.827 216.012 243.834 216.049L242.764 216.167Z" fill="#FCD2B1"/>
<path d="M251.833 168.152C251.833 168.152 251.022 182.922 241.468 185.072C231.915 187.223 219.2 195.51 215.467 200.129L210.911 206.139V199.432C210.911 199.432 212.81 188.408 241.089 183.829C241.089 183.829 249.202 183.294 248.906 167.794C248.906 167.795 251.888 167.507 251.833 168.152Z" fill="#FFB900"/>
<path d="M259.119 146.278L259.118 146.279C259.097 146.303 258.66 146.86 257.925 147.647C256.367 149.316 253.472 152.032 250.384 152.971C250.487 152.202 250.505 151.348 250.503 150.803C250.195 150.773 249.89 150.712 249.595 150.62C250.53 149.253 251.835 147.842 251.835 147.842L253.731 147.437L259.119 146.278Z" fill="#A77860"/>
<path d="M263.385 133.566C263.132 134.817 262.44 136.015 261.668 136.894C261.974 138.809 261.682 141.804 261.682 141.804C261.482 142.165 261.296 142.524 261.11 142.856C260.165 144.532 259.38 145.797 259.114 146.277C259.114 146.29 259.1 146.303 259.087 146.317C258.927 146.635 258.502 147.116 257.929 147.648C256.279 149.164 253.271 151.107 250.503 150.801C250.195 150.779 249.891 150.716 249.599 150.615C248.494 150.281 247.216 149.657 246.59 148.179C246.015 146.798 245.548 145.374 245.193 143.921V143.907C245.003 143.107 244.847 142.299 244.727 141.485C244.727 141.459 244.714 141.446 244.714 141.432C244.674 141.153 244.647 140.887 244.62 140.621C243.889 134.233 245.712 129.536 246.391 128.057C246.537 127.738 246.631 127.565 246.631 127.565C246.631 127.565 246.91 127.512 247.402 127.433L247.788 127.765C249.944 127.965 252.1 127.272 256 127.845C260.605 128.509 256.079 136.522 256.079 136.522L258.662 136.269C258.662 135.565 258.768 134.766 258.901 134.033C259.339 131.584 263.904 130.984 263.385 133.566Z" fill="#F1B99E"/>
<path d="M247.401 127.432L247.787 127.764C247.396 127.734 247.009 127.667 246.63 127.563C246.63 127.563 246.483 127.351 246.271 126.992L246.563 126.671L247.401 127.432ZM263.385 133.566C263.132 134.817 262.44 136.015 261.668 136.894C261.562 136.201 261.362 135.656 261.056 135.43C259.871 134.591 258.661 136.267 258.661 136.267C258.661 135.563 258.767 134.764 258.9 134.031C259.339 131.584 263.904 130.984 263.385 133.566Z" fill="#515154"/>
<path d="M263.385 133.566C263.132 134.817 262.44 136.015 261.668 136.894C260.869 137.812 259.991 138.37 259.472 138.291C258.859 138.185 258.661 137.333 258.661 136.267C258.661 135.563 258.767 134.764 258.9 134.031C259.339 131.584 263.904 130.984 263.385 133.566Z" fill="#F1B99E"/>
<path d="M248.512 167.587C248.512 167.587 250.328 169.154 252.407 167.863C252.407 167.863 251.623 164.258 251.148 164.13C250.673 164.006 248.28 166.932 248.512 167.587Z" fill="#FCD2B1"/>
<path d="M246.553 215.914C246.553 215.914 242.041 216.091 240.535 216.342L240.727 221.343L246.836 220.979L246.553 215.914Z" fill="#FFB900"/>
<path d="M236.475 159.533L226.287 171.25L232.623 161.103C232.87 160.937 234.41 160.323 236.475 159.533Z" fill="#D5BBAF"/>
<path d="M253.337 118.528C253.314 118.707 253.282 118.885 253.243 119.061C253.058 119.061 252.884 119.074 252.725 119.074C252.91 118.887 253.11 118.702 253.337 118.528Z" fill="#CCE9FF"/>
<path d="M253.337 118.528C253.314 118.707 253.282 118.885 253.243 119.061C253.058 119.061 252.884 119.074 252.725 119.074C252.91 118.887 253.11 118.702 253.337 118.528Z" fill="#CCE9FF"/>
<path d="M261.708 141.764C261.694 141.791 261.681 141.804 261.681 141.804C261.681 141.804 261.973 138.81 261.667 136.894C262.439 136.015 263.131 134.817 263.384 133.566C263.903 130.984 259.338 131.584 258.899 134.031C258.766 134.764 258.66 135.562 258.66 136.267L256.077 136.52C256.077 136.52 260.603 128.507 255.998 127.843C252.098 127.27 249.943 127.963 247.786 127.763L247.4 127.431L246.561 126.671L246.269 126.992C245.63 125.927 244.326 123.532 244.219 121.429C244.219 121.363 244.205 121.283 244.219 121.217C244.192 120.843 244.192 120.51 244.192 120.205C244.165 120.165 244.152 120.125 244.139 120.085C244.379 117.53 247.426 115.508 251.153 115.508C251.725 115.508 252.297 115.561 252.83 115.654C253.285 116.539 253.462 117.541 253.336 118.528C253.12 118.696 252.915 118.878 252.724 119.073C252.883 119.073 253.057 119.06 253.242 119.06C253.283 118.887 253.309 118.716 253.336 118.528C254.134 117.915 255.159 117.436 256.343 117.13C257.265 116.896 258.213 116.779 259.165 116.784C263.357 116.784 266.764 118.967 266.764 121.655V121.669C267.296 122.413 267.736 123.558 267.882 125.315C268.588 133.712 262.187 141.232 261.708 141.764Z" fill="#0B4870"/>
<path d="M244.194 120.205C244.194 120.51 244.194 120.843 244.221 121.217C244.145 120.962 244.109 120.697 244.114 120.431C244.114 120.312 244.114 120.205 244.14 120.085C244.154 120.125 244.167 120.165 244.194 120.205ZM252.725 119.073C252.91 118.887 253.11 118.702 253.337 118.528C253.314 118.707 253.282 118.885 253.243 119.061C253.058 119.06 252.884 119.073 252.725 119.073Z" fill="#0B4870"/>
<path d="M256.344 117.131C255.16 117.437 254.135 117.915 253.337 118.528C253.463 117.541 253.287 116.539 252.831 115.654C254.215 115.893 255.426 116.412 256.344 117.131Z" fill="#0B4870"/>
<path d="M167.582 127.327C170.631 127.69 172.914 129.324 174.432 132.228C175.968 135.166 176.267 137.859 175.331 140.303C174.395 142.749 172.554 144.883 169.809 146.707L171.944 151.654L165.765 154.884L161.461 147.392C164.493 145.378 166.466 143.56 167.384 141.943C168.3 140.323 168.344 138.721 167.514 137.134C166.826 135.817 165.844 135.03 164.57 134.771C163.296 134.513 161.779 134.844 160.024 135.761C158.268 136.678 157.101 137.924 156.525 139.492C155.948 141.062 156.068 142.794 156.887 144.688L148.872 145.396C147.899 142.465 148.103 139.628 149.486 136.884C150.867 134.14 153.518 131.744 157.435 129.696C161.149 127.755 164.531 126.967 167.582 127.327ZM174.323 155.956C175.469 156.259 176.361 157.018 176.997 158.235C177.632 159.452 177.748 160.617 177.342 161.732C176.935 162.847 176.057 163.757 174.707 164.463C173.356 165.17 172.116 165.366 170.986 165.056C169.855 164.744 168.972 163.981 168.337 162.764C167.702 161.548 167.579 160.387 167.966 159.28C168.355 158.174 169.226 157.267 170.577 156.56C171.926 155.855 173.175 155.653 174.323 155.956ZM341.744 122.342C344.23 125.341 344.903 128.84 343.76 132.838C342.605 136.883 340.527 139.621 337.529 141.052C334.53 142.483 330.971 142.835 326.854 142.11L324.492 148.528L315.984 146.096L318.575 135.447C323.124 136.246 326.528 136.299 328.787 135.612C331.044 134.925 332.486 133.488 333.111 131.302C333.629 129.49 333.414 127.907 332.468 126.556C331.522 125.203 329.839 124.183 327.423 123.492C325.005 122.801 322.844 122.927 320.942 123.867C319.039 124.806 317.636 126.505 316.733 128.961L308.743 122.605C310.41 119.058 313.078 116.629 316.748 115.313C320.416 113.999 324.948 114.112 330.342 115.654C335.455 117.114 339.255 119.345 341.744 122.342ZM322.919 154.564C323.707 155.846 323.864 157.325 323.385 158.998C322.907 160.671 321.994 161.843 320.646 162.515C319.297 163.185 317.692 163.255 315.833 162.724C313.974 162.191 312.661 161.288 311.894 160.013C311.127 158.739 310.982 157.263 311.46 155.59C311.938 153.917 312.84 152.742 314.165 152.062C315.49 151.386 317.082 151.312 318.942 151.844C320.802 152.375 322.127 153.283 322.919 154.564ZM247.617 71.369C248.714 72.692 249.012 74.235 248.508 75.998C247.998 77.783 247.081 78.991 245.758 79.622C244.435 80.255 242.864 80.409 241.048 80.09L240.006 82.92L236.253 81.847L237.397 77.149C239.404 77.503 240.905 77.525 241.902 77.222C242.897 76.92 243.534 76.286 243.809 75.321C244.037 74.521 243.943 73.824 243.525 73.227C243.107 72.632 242.366 72.181 241.301 71.876C240.232 71.571 239.281 71.627 238.441 72.041C237.601 72.455 236.981 73.205 236.585 74.29L233.059 71.485C233.795 69.921 234.973 68.849 236.59 68.269C238.208 67.689 240.208 67.738 242.589 68.419C244.844 69.062 246.52 70.045 247.617 71.369ZM239.311 85.583C239.661 86.148 239.728 86.801 239.517 87.54C239.307 88.279 238.905 88.795 238.309 89.09C237.714 89.386 237.006 89.418 236.186 89.183C235.366 88.948 234.786 88.55 234.448 87.986C234.109 87.425 234.046 86.774 234.256 86.035C234.467 85.298 234.865 84.778 235.45 84.479C236.035 84.181 236.737 84.148 237.558 84.383C238.379 84.619 238.963 85.018 239.311 85.583Z" fill="#FFB900"/>
</g>
<defs>
<clipPath id="clip0_325_3773">
<rect width="500" height="421" fill="white" transform="translate(0.5)"/>
</clipPath>
</defs>
</svg>

